<mxfile host="65bd71144e">
    <diagram name="Page-1" id="bNAeaqj4cGjf8OWuCAYF">
        <mxGraphModel dx="3052" dy="1187" grid="1" gridSize="10" guides="1" tooltips="1" connect="1" arrows="1" fold="1" page="1" pageScale="1" pageWidth="850" pageHeight="1100" math="0" shadow="0">
            <root>
                <mxCell id="0"/>
                <mxCell id="1" parent="0"/>
                <mxCell id="QrT2VM_feHwuqajHNbJx-2" value="&lt;div&gt;ConnectorID&lt;/div&gt;&lt;blockquote style=&quot;margin: 0px 0px 0px 40px; border: none; padding: 0px;&quot;&gt;ms_module_msgs/ModuleID&amp;nbsp;module_id&lt;div&gt;&lt;div&gt;string type&lt;/div&gt;&lt;div&gt;string subtype&lt;/div&gt;&lt;div&gt;&lt;span style=&quot;background-color: initial;&quot;&gt;int64 num&lt;/span&gt;&lt;/div&gt;&lt;/div&gt;&lt;/blockquote&gt;" style="rounded=0;whiteSpace=wrap;html=1;align=left;" parent="1" vertex="1">
                    <mxGeometry x="-420" y="160" width="290" height="80" as="geometry"/>
                </mxCell>
                <mxCell id="QrT2VM_feHwuqajHNbJx-3" value="&lt;div&gt;&lt;div&gt;MotorID&lt;/div&gt;&lt;blockquote style=&quot;margin: 0px 0px 0px 40px; border: none; padding: 0px;&quot;&gt;ms_module_msgs/MSUID module_id&lt;div&gt;ms_module_msgs/MSUID&amp;nbsp;&lt;span style=&quot;background-color: initial;&quot;&gt;proprietary_id&lt;/span&gt;&lt;/div&gt;&lt;div&gt;ms_module_msgs/MSUID&amp;nbsp;&lt;span style=&quot;background-color: initial;&quot;&gt;id&lt;/span&gt;&lt;span style=&quot;background-color: initial;&quot;&gt;&lt;br&gt;&lt;/span&gt;&lt;/div&gt;&lt;/blockquote&gt;&lt;/div&gt;" style="rounded=0;whiteSpace=wrap;html=1;align=left;fillColor=#000000;" parent="1" vertex="1">
                    <mxGeometry x="1450" y="160" width="290" height="100" as="geometry"/>
                </mxCell>
                <mxCell id="QrT2VM_feHwuqajHNbJx-5" value="&lt;div&gt;JointID&lt;/div&gt;&lt;blockquote style=&quot;margin: 0 0 0 40px; border: none; padding: 0px;&quot;&gt;ms_module_msgs/ModuleID module_id&lt;div&gt;&lt;div&gt;string type&lt;/div&gt;&lt;div&gt;string subtype&lt;/div&gt;&lt;div&gt;&lt;span style=&quot;background-color: initial;&quot;&gt;int64 num&lt;/span&gt;&lt;/div&gt;&lt;/div&gt;&lt;/blockquote&gt;" style="rounded=0;whiteSpace=wrap;html=1;align=left;" parent="1" vertex="1">
                    <mxGeometry x="-750" y="160" width="290" height="80" as="geometry"/>
                </mxCell>
                <mxCell id="QrT2VM_feHwuqajHNbJx-6" value="&lt;div&gt;MotorState&lt;/div&gt;&lt;blockquote style=&quot;margin: 0 0 0 40px; border: none; padding: 0px;&quot;&gt;&lt;div&gt;&lt;div&gt;std_msgs/Header header&lt;/div&gt;&lt;/div&gt;&lt;/blockquote&gt;&lt;blockquote style=&quot;margin: 0 0 0 40px; border: none; padding: 0px;&quot;&gt;&lt;div&gt;ms_module_msgs/MotorID motor_id&lt;/div&gt;&lt;div&gt;float64 position&lt;/div&gt;&lt;div&gt;float64 velocity&lt;/div&gt;&lt;div&gt;float64 effort&lt;/div&gt;&lt;div&gt;&lt;div&gt;MoterLimits motor_limits&lt;/div&gt;&lt;/div&gt;&lt;div&gt;float64 electric_current&lt;/div&gt;&lt;div&gt;float64 electric_voltage&lt;/div&gt;&lt;div&gt;float64 temperature&lt;/div&gt;&lt;div&gt;bool is_healthy&lt;/div&gt;&lt;div&gt;&lt;div&gt;string error_str&lt;/div&gt;&lt;/div&gt;&lt;div&gt;&lt;span style=&quot;background-color: initial;&quot;&gt;string[] error_indexes&lt;/span&gt;&lt;br&gt;&lt;/div&gt;&lt;div&gt;int64[] error_values&lt;/div&gt;&lt;/blockquote&gt;" style="rounded=0;whiteSpace=wrap;html=1;align=left;fillColor=#000000;" parent="1" vertex="1">
                    <mxGeometry x="1450" y="270" width="290" height="210" as="geometry"/>
                </mxCell>
                <mxCell id="QrT2VM_feHwuqajHNbJx-7" value="&lt;div&gt;MotorCmd&lt;/div&gt;&lt;blockquote style=&quot;margin: 0 0 0 40px; border: none; padding: 0px;&quot;&gt;&lt;div&gt;std_msgs/Header header&lt;/div&gt;&lt;div&gt;&lt;div&gt;&lt;div&gt;ms_module_msgs/ModuleID publisher_id&lt;/div&gt;&lt;div&gt;&lt;/div&gt;&lt;/div&gt;&lt;/div&gt;&lt;div&gt;ms_module_msgs/MotorID motor_id&lt;/div&gt;&lt;div&gt;int8 control_type&amp;nbsp;&lt;span style=&quot;background-color: initial;&quot;&gt;# which following cmd acts&lt;/span&gt;&lt;/div&gt;&lt;div&gt;float64 position&lt;/div&gt;&lt;div&gt;float64 velocity&lt;/div&gt;&lt;div&gt;&lt;span style=&quot;background-color: initial;&quot;&gt;float64 effort&lt;/span&gt;&lt;/div&gt;&lt;div&gt;&lt;span style=&quot;background-color: initial;&quot;&gt;bool reset&lt;/span&gt;&lt;br&gt;&lt;/div&gt;&lt;div&gt;bool torque_enable&lt;/div&gt;&lt;div&gt;bool control_enable&lt;/div&gt;&lt;div&gt;bool lock&lt;/div&gt;&lt;/blockquote&gt;" style="rounded=0;whiteSpace=wrap;html=1;align=left;fillColor=#000000;" parent="1" vertex="1">
                    <mxGeometry x="1450" y="560" width="290" height="180" as="geometry"/>
                </mxCell>
                <mxCell id="QrT2VM_feHwuqajHNbJx-10" value="&lt;div&gt;JointState&lt;/div&gt;&lt;blockquote style=&quot;margin: 0 0 0 40px; border: none; padding: 0px;&quot;&gt;&lt;div&gt;std_msgs/Header header&lt;/div&gt;&lt;div&gt;ms_module_msgs/JointID joint_id&lt;/div&gt;&lt;div&gt;float64 position&lt;/div&gt;&lt;div&gt;float64 velocity&lt;/div&gt;&lt;div&gt;float64 effort&lt;/div&gt;&lt;div&gt;&lt;span style=&quot;background-color: initial;&quot;&gt;bool is_healthy&lt;/span&gt;&lt;br&gt;&lt;/div&gt;&lt;div&gt;string error_str&lt;/div&gt;&lt;div&gt;string[] error_indexes&lt;/div&gt;&lt;div&gt;int64[] error_values&lt;/div&gt;&lt;/blockquote&gt;" style="rounded=0;whiteSpace=wrap;html=1;align=left;" parent="1" vertex="1">
                    <mxGeometry x="-750" y="250" width="290" height="180" as="geometry"/>
                </mxCell>
                <mxCell id="QrT2VM_feHwuqajHNbJx-11" value="&lt;div&gt;JointCmdList&lt;/div&gt;&lt;blockquote style=&quot;margin: 0 0 0 40px; border: none; padding: 0px;&quot;&gt;&lt;span style=&quot;background-color: initial;&quot;&gt;ms_module_msgs/&lt;/span&gt;JointCmd[] joint_cmd_list&lt;br&gt;&lt;/blockquote&gt;" style="rounded=0;whiteSpace=wrap;html=1;align=left;" parent="1" vertex="1">
                    <mxGeometry x="-750" y="700" width="290" height="60" as="geometry"/>
                </mxCell>
                <mxCell id="QrT2VM_feHwuqajHNbJx-12" value="&lt;div&gt;JointCmd&lt;/div&gt;&lt;blockquote style=&quot;margin: 0 0 0 40px; border: none; padding: 0px;&quot;&gt;&lt;div&gt;std_msgs/Header header&lt;/div&gt;&lt;div&gt;&lt;div&gt;ms_module_msgs/ModuleID publisher_id&lt;/div&gt;&lt;div&gt;&lt;/div&gt;&lt;/div&gt;&lt;div&gt;ms_module_msgs/JointID joint_id&lt;/div&gt;&lt;div&gt;&lt;div&gt;int8 control_type # which following cmd acts&lt;/div&gt;&lt;/div&gt;&lt;div&gt;float64 position&lt;/div&gt;&lt;div&gt;float64 velocity&lt;/div&gt;&lt;div&gt;float64 effort&lt;/div&gt;&lt;div&gt;&lt;div&gt;bool reset_motor&lt;/div&gt;&lt;/div&gt;&lt;div&gt;bool clear_error&lt;/div&gt;&lt;div&gt;bool torque_enable&lt;/div&gt;&lt;div&gt;bool control_enable&lt;/div&gt;&lt;div&gt;bool lock&lt;br&gt;&lt;/div&gt;&lt;/blockquote&gt;" style="rounded=0;whiteSpace=wrap;html=1;align=left;" parent="1" vertex="1">
                    <mxGeometry x="-750" y="500" width="290" height="190" as="geometry"/>
                </mxCell>
                <mxCell id="QrT2VM_feHwuqajHNbJx-13" value="&lt;div&gt;ConnectorState&lt;/div&gt;&lt;blockquote style=&quot;margin: 0 0 0 40px; border: none; padding: 0px;&quot;&gt;&lt;div&gt;std_msgs/Header header&lt;/div&gt;&lt;div&gt;ms_module_msgs/ConnectorID connector_id&lt;/div&gt;&lt;div&gt;&lt;div&gt;bool is_locked&lt;/div&gt;&lt;div&gt;bool is_to_absorb_device_locked&lt;/div&gt;&lt;div&gt;&lt;span style=&quot;background-color: initial;&quot;&gt;bool is_healthy&lt;/span&gt;&lt;br&gt;&lt;/div&gt;&lt;/div&gt;&lt;div&gt;string error_str&lt;/div&gt;&lt;div&gt;string[] error_indexes&lt;/div&gt;&lt;div&gt;int64[] error_values&lt;/div&gt;&lt;/blockquote&gt;" style="rounded=0;whiteSpace=wrap;html=1;align=left;" parent="1" vertex="1">
                    <mxGeometry x="-420" y="250" width="290" height="140" as="geometry"/>
                </mxCell>
                <mxCell id="QrT2VM_feHwuqajHNbJx-15" value="&lt;div&gt;LinkingConnectorsState&lt;/div&gt;&lt;blockquote style=&quot;margin: 0 0 0 40px; border: none; padding: 0px;&quot;&gt;&lt;div&gt;std_msgs/Header header&lt;/div&gt;&lt;div&gt;ms_module_msgs/ConnectorID first_id&lt;/div&gt;&lt;div&gt;ms_module_msgs/ConnectorID second_id&lt;/div&gt;&lt;div&gt;&lt;span style=&quot;background-color: initial;&quot;&gt;float64 connection_posture&lt;/span&gt;&lt;/div&gt;&lt;/blockquote&gt;" style="rounded=0;whiteSpace=wrap;html=1;align=left;" parent="1" vertex="1">
                    <mxGeometry x="2410" y="160" width="290" height="90" as="geometry"/>
                </mxCell>
                <mxCell id="QrT2VM_feHwuqajHNbJx-17" value="&lt;div&gt;LinkingConnectorsCmd&lt;/div&gt;&lt;blockquote style=&quot;margin: 0 0 0 40px; border: none; padding: 0px;&quot;&gt;&lt;div&gt;std_msgs/Header header&lt;/div&gt;&lt;div&gt;&lt;div&gt;&lt;div&gt;ms_module_msgs/ModuleID publisher_id&lt;/div&gt;&lt;div&gt;&lt;/div&gt;&lt;/div&gt;&lt;/div&gt;&lt;div&gt;ms_module_msgs/ConnectorID first_id&lt;/div&gt;&lt;div&gt;ms_module_msgs/ConnectorID second_id&lt;/div&gt;&lt;div&gt;&lt;span style=&quot;background-color: initial;&quot;&gt;float64 connection_posture&lt;/span&gt;&lt;/div&gt;&lt;/blockquote&gt;" style="rounded=0;whiteSpace=wrap;html=1;align=left;" parent="1" vertex="1">
                    <mxGeometry x="2410" y="265" width="290" height="90" as="geometry"/>
                </mxCell>
                <mxCell id="QrT2VM_feHwuqajHNbJx-19" value="&lt;div&gt;&lt;span style=&quot;background-color: initial; text-wrap: nowrap;&quot;&gt;OppositeConnectorInfo&lt;/span&gt;&lt;/div&gt;&lt;blockquote style=&quot;margin: 0 0 0 40px; border: none; padding: 0px;&quot;&gt;&lt;div&gt;std_msgs/Header header&lt;/div&gt;&lt;div&gt;&lt;div&gt;ms_module_msgs/ConnectorID self_id&lt;/div&gt;&lt;/div&gt;&lt;div&gt;ms_module_msgs/ConnectorID opposide_id&lt;/div&gt;&lt;/blockquote&gt;" style="rounded=0;whiteSpace=wrap;html=1;align=left;" parent="1" vertex="1">
                    <mxGeometry x="2410" y="375" width="290" height="70" as="geometry"/>
                </mxCell>
                <mxCell id="QrT2VM_feHwuqajHNbJx-20" value="&lt;div&gt;MotorErrorState&lt;/div&gt;&lt;blockquote style=&quot;margin: 0 0 0 40px; border: none; padding: 0px;&quot;&gt;&lt;div&gt;&lt;div&gt;std_msgs/Header header&lt;/div&gt;&lt;/div&gt;&lt;/blockquote&gt;&lt;blockquote style=&quot;margin: 0 0 0 40px; border: none; padding: 0px;&quot;&gt;&lt;div&gt;ms_module_msgs/MotorID motor_id&lt;/div&gt;&lt;div&gt;bool is_healthy&lt;/div&gt;&lt;div&gt;&lt;div&gt;string error_str&lt;/div&gt;&lt;/div&gt;&lt;div&gt;&lt;span style=&quot;background-color: initial;&quot;&gt;string[] error_indexes&lt;/span&gt;&lt;br&gt;&lt;/div&gt;&lt;div&gt;int64[] error_values&lt;/div&gt;&lt;/blockquote&gt;" style="rounded=0;whiteSpace=wrap;html=1;align=left;fillColor=#000000;" parent="1" vertex="1">
                    <mxGeometry x="1450" y="750" width="290" height="110" as="geometry"/>
                </mxCell>
                <mxCell id="QrT2VM_feHwuqajHNbJx-21" value="&lt;div&gt;ConnectorErrorState&lt;/div&gt;&lt;blockquote style=&quot;margin: 0 0 0 40px; border: none; padding: 0px;&quot;&gt;&lt;div&gt;&lt;div&gt;std_msgs/Header header&lt;/div&gt;&lt;/div&gt;&lt;/blockquote&gt;&lt;blockquote style=&quot;margin: 0 0 0 40px; border: none; padding: 0px;&quot;&gt;&lt;div&gt;ms_module_msgs/ConnectorID connector_id&lt;/div&gt;&lt;div&gt;bool is_healthy&lt;/div&gt;&lt;div&gt;&lt;div&gt;string error_str&lt;/div&gt;&lt;/div&gt;&lt;div&gt;&lt;span style=&quot;background-color: initial;&quot;&gt;string[] error_indexes&lt;/span&gt;&lt;br&gt;&lt;/div&gt;&lt;div&gt;int64[] error_values&lt;/div&gt;&lt;/blockquote&gt;" style="rounded=0;whiteSpace=wrap;html=1;align=left;" parent="1" vertex="1">
                    <mxGeometry x="-420" y="510" width="290" height="110" as="geometry"/>
                </mxCell>
                <mxCell id="QrT2VM_feHwuqajHNbJx-22" value="&lt;div&gt;JointErrorState&lt;/div&gt;&lt;blockquote style=&quot;margin: 0 0 0 40px; border: none; padding: 0px;&quot;&gt;&lt;div&gt;&lt;div&gt;std_msgs/Header header&lt;/div&gt;&lt;/div&gt;&lt;/blockquote&gt;&lt;blockquote style=&quot;margin: 0 0 0 40px; border: none; padding: 0px;&quot;&gt;&lt;div&gt;ms_module_msgs/JointID joint_id&lt;/div&gt;&lt;div&gt;bool is_healthy&lt;/div&gt;&lt;div&gt;&lt;div&gt;string error_str&lt;/div&gt;&lt;/div&gt;&lt;div&gt;&lt;span style=&quot;background-color: initial;&quot;&gt;string[] error_indexes&lt;/span&gt;&lt;br&gt;&lt;/div&gt;&lt;div&gt;int64[] error_values&lt;/div&gt;&lt;/blockquote&gt;" style="rounded=0;whiteSpace=wrap;html=1;align=left;" parent="1" vertex="1">
                    <mxGeometry x="-750" y="770" width="290" height="110" as="geometry"/>
                </mxCell>
                <mxCell id="QrT2VM_feHwuqajHNbJx-23" value="&lt;div&gt;ConnectorCmd&lt;/div&gt;&lt;blockquote style=&quot;margin: 0 0 0 40px; border: none; padding: 0px;&quot;&gt;&lt;div&gt;std_msgs/Header header&lt;/div&gt;&lt;div&gt;&lt;div&gt;&lt;div&gt;ms_module_msgs/ModuleID publisher_id&lt;/div&gt;&lt;div&gt;&lt;/div&gt;&lt;/div&gt;&lt;/div&gt;&lt;div&gt;ms_module_msgs/ConnectorID&amp;nbsp;&lt;span style=&quot;background-color: initial;&quot;&gt;connector_id&lt;/span&gt;&lt;/div&gt;&lt;div&gt;&lt;div&gt;bool lock_or_unlock&lt;/div&gt;&lt;/div&gt;&lt;/blockquote&gt;" style="rounded=0;whiteSpace=wrap;html=1;align=left;" parent="1" vertex="1">
                    <mxGeometry x="-420" y="400" width="290" height="100" as="geometry"/>
                </mxCell>
                <mxCell id="QrT2VM_feHwuqajHNbJx-25" value="&lt;div&gt;SetJointCmdList&lt;/div&gt;&lt;blockquote style=&quot;margin: 0 0 0 40px; border: none; padding: 0px;&quot;&gt;ms_module_msgs/&lt;span style=&quot;background-color: initial;&quot;&gt;JointCmd[] joint_cmd_list&lt;/span&gt;&lt;div&gt;float64 timeout&lt;/div&gt;&lt;div&gt;---&lt;/div&gt;&lt;div&gt;bool success&lt;/div&gt;&lt;div&gt;&lt;div&gt;&lt;span style=&quot;background-color: initial;&quot;&gt;ms_module_msgs/&lt;/span&gt;JointState[] joint_state_list&lt;/div&gt;&lt;blockquote style=&quot;margin: 0px 0px 0px 40px; border: none; padding: 0px;&quot;&gt;&lt;/blockquote&gt;&lt;/div&gt;&lt;blockquote style=&quot;margin: 0px 0px 0px 40px; border: none; padding: 0px;&quot;&gt;&lt;/blockquote&gt;&lt;/blockquote&gt;" style="rounded=0;whiteSpace=wrap;html=1;align=left;" parent="1" vertex="1">
                    <mxGeometry x="-750" y="1310" width="290" height="90" as="geometry"/>
                </mxCell>
                <mxCell id="QrT2VM_feHwuqajHNbJx-26" value="&lt;div&gt;SetJointsLimits&lt;/div&gt;&lt;blockquote style=&quot;margin: 0 0 0 40px; border: none; padding: 0px;&quot;&gt;ms_module_msgs/&lt;span style=&quot;background-color: initial;&quot;&gt;JointLimitsCmd&lt;/span&gt;[]&amp;nbsp;&lt;span style=&quot;background-color: initial;&quot;&gt;joints_limits&lt;/span&gt;&lt;div&gt;float64 timeout&lt;/div&gt;&lt;div&gt;---&lt;/div&gt;&lt;div&gt;bool success&lt;/div&gt;&lt;div&gt;&lt;blockquote style=&quot;margin: 0px 0px 0px 40px; border: none; padding: 0px;&quot;&gt;&lt;/blockquote&gt;&lt;/div&gt;&lt;blockquote style=&quot;margin: 0px 0px 0px 40px; border: none; padding: 0px;&quot;&gt;&lt;/blockquote&gt;&lt;/blockquote&gt;" style="rounded=0;whiteSpace=wrap;html=1;align=left;fillColor=#000000;" parent="1" vertex="1">
                    <mxGeometry x="-750" y="1420" width="290" height="80" as="geometry"/>
                </mxCell>
                <mxCell id="QrT2VM_feHwuqajHNbJx-27" value="&lt;div&gt;MotorLimits&lt;/div&gt;&lt;blockquote style=&quot;margin: 0 0 0 40px; border: none; padding: 0px;&quot;&gt;float64 min_angle&lt;/blockquote&gt;&lt;blockquote style=&quot;margin: 0 0 0 40px; border: none; padding: 0px;&quot;&gt;float64 max_angle&lt;br&gt;&lt;/blockquote&gt;&lt;blockquote style=&quot;margin: 0 0 0 40px; border: none; padding: 0px;&quot;&gt;float64 max_velocity&lt;br&gt;&lt;/blockquote&gt;&lt;blockquote style=&quot;margin: 0 0 0 40px; border: none; padding: 0px;&quot;&gt;float64 max_effort&lt;/blockquote&gt;" style="rounded=0;whiteSpace=wrap;html=1;align=left;fillColor=#000000;" parent="1" vertex="1">
                    <mxGeometry x="1450" y="875" width="290" height="105" as="geometry"/>
                </mxCell>
                <mxCell id="QrT2VM_feHwuqajHNbJx-28" value="&lt;div&gt;JointLimits&lt;/div&gt;&lt;blockquote style=&quot;margin: 0px 0px 0px 40px; border: none; padding: 0px;&quot;&gt;float64 min_angle&lt;/blockquote&gt;&lt;blockquote style=&quot;margin: 0px 0px 0px 40px; border: none; padding: 0px;&quot;&gt;float64 max_angle&lt;br&gt;&lt;/blockquote&gt;&lt;blockquote style=&quot;margin: 0px 0px 0px 40px; border: none; padding: 0px;&quot;&gt;float64 max_velocity&lt;br&gt;&lt;/blockquote&gt;&lt;blockquote style=&quot;margin: 0px 0px 0px 40px; border: none; padding: 0px;&quot;&gt;float64 max_effort&lt;/blockquote&gt;" style="rounded=0;whiteSpace=wrap;html=1;align=left;fillColor=#000000;" parent="1" vertex="1">
                    <mxGeometry x="-750" y="970" width="290" height="110" as="geometry"/>
                </mxCell>
                <mxCell id="QrT2VM_feHwuqajHNbJx-29" value="&lt;div&gt;&lt;span style=&quot;background-color: rgb(255, 255, 255); text-align: center; text-wrap: nowrap;&quot;&gt;&lt;font style=&quot;font-size: 12px;&quot;&gt;GetAllJointErrorState&lt;/font&gt;&lt;/span&gt;&lt;/div&gt;&lt;blockquote style=&quot;margin: 0 0 0 40px; border: none; padding: 0px;&quot;&gt;&lt;div&gt;&lt;div&gt;&lt;span style=&quot;background-color: initial;&quot;&gt;float64 timeout&lt;/span&gt;&lt;br&gt;&lt;/div&gt;&lt;/div&gt;&lt;div&gt;---&lt;/div&gt;&lt;div&gt;bool success&lt;/div&gt;&lt;div&gt;&lt;div&gt;&lt;span style=&quot;background-color: initial;&quot;&gt;ms_module_msgs/&lt;/span&gt;&lt;span style=&quot;background-color: initial;&quot;&gt;JointErrorState&lt;/span&gt;[]&amp;nbsp;&lt;span style=&quot;background-color: initial;&quot;&gt;joint_error_state_list&lt;/span&gt;&lt;/div&gt;&lt;blockquote style=&quot;margin: 0px 0px 0px 40px; border: none; padding: 0px;&quot;&gt;&lt;div&gt;&lt;/div&gt;&lt;/blockquote&gt;&lt;/div&gt;&lt;div&gt;&lt;blockquote style=&quot;margin: 0px 0px 0px 40px; border: none; padding: 0px;&quot;&gt;&lt;/blockquote&gt;&lt;/div&gt;&lt;blockquote style=&quot;margin: 0px 0px 0px 40px; border: none; padding: 0px;&quot;&gt;&lt;/blockquote&gt;&lt;/blockquote&gt;" style="rounded=0;whiteSpace=wrap;html=1;align=left;" parent="1" vertex="1">
                    <mxGeometry x="-750" y="1640" width="340" height="90" as="geometry"/>
                </mxCell>
                <mxCell id="QrT2VM_feHwuqajHNbJx-30" value="&lt;div&gt;AllJointState&lt;/div&gt;&lt;blockquote style=&quot;margin: 0 0 0 40px; border: none; padding: 0px;&quot;&gt;&lt;div&gt;ms_module_msgs/JointState[] joint_state_list&lt;/div&gt;&lt;/blockquote&gt;" style="rounded=0;whiteSpace=wrap;html=1;align=left;" parent="1" vertex="1">
                    <mxGeometry x="-750" y="440" width="290" height="50" as="geometry"/>
                </mxCell>
                <mxCell id="QrT2VM_feHwuqajHNbJx-31" value="&lt;div&gt;JointErrorStateList&lt;/div&gt;&lt;blockquote style=&quot;margin: 0 0 0 40px; border: none; padding: 0px;&quot;&gt;&lt;span style=&quot;background-color: initial;&quot;&gt;ms_module_msgs/&lt;/span&gt;&lt;span style=&quot;background-color: initial;&quot;&gt;JointErrorState&lt;/span&gt;[] joint_error_state_list&lt;br&gt;&lt;/blockquote&gt;" style="rounded=0;whiteSpace=wrap;html=1;align=left;" parent="1" vertex="1">
                    <mxGeometry x="-750" y="890" width="290" height="70" as="geometry"/>
                </mxCell>
                <mxCell id="QrT2VM_feHwuqajHNbJx-33" value="&lt;div&gt;CameraID&lt;/div&gt;&lt;blockquote style=&quot;margin: 0 0 0 40px; border: none; padding: 0px;&quot;&gt;&lt;span style=&quot;background-color: initial;&quot;&gt;ms_module_msgs/ModuleID&lt;/span&gt;&amp;nbsp;module_id&lt;/blockquote&gt;&lt;blockquote style=&quot;margin: 0 0 0 40px; border: none; padding: 0px;&quot;&gt;&lt;div&gt;string type&lt;/div&gt;&lt;div&gt;string subtype&lt;/div&gt;&lt;div&gt;&lt;span style=&quot;background-color: initial;&quot;&gt;int64 num&lt;/span&gt;&lt;/div&gt;&lt;/blockquote&gt;" style="rounded=0;whiteSpace=wrap;html=1;align=left;" parent="1" vertex="1">
                    <mxGeometry x="1770" y="160" width="290" height="80" as="geometry"/>
                </mxCell>
                <mxCell id="QrT2VM_feHwuqajHNbJx-34" value="&lt;div&gt;LedID&lt;/div&gt;&lt;blockquote style=&quot;margin: 0 0 0 40px; border: none; padding: 0px;&quot;&gt;ms_module_msgs/&lt;span style=&quot;background-color: initial;&quot;&gt;ModuleID&lt;/span&gt;&amp;nbsp;module_id&lt;div&gt;&lt;div&gt;string type&lt;/div&gt;&lt;div&gt;string subtype&lt;/div&gt;&lt;div&gt;&lt;span style=&quot;background-color: initial;&quot;&gt;int64 num&lt;/span&gt;&lt;/div&gt;&lt;/div&gt;&lt;/blockquote&gt;" style="rounded=0;whiteSpace=wrap;html=1;align=left;" parent="1" vertex="1">
                    <mxGeometry x="2080" y="160" width="290" height="80" as="geometry"/>
                </mxCell>
                <mxCell id="QrT2VM_feHwuqajHNbJx-36" value="&lt;div&gt;&lt;span style=&quot;background-color: rgb(255, 255, 255); text-align: center; text-wrap: nowrap;&quot;&gt;&lt;font style=&quot;font-size: 12px;&quot;&gt;GetAllJointState&lt;/font&gt;&lt;/span&gt;&lt;/div&gt;&lt;blockquote style=&quot;margin: 0 0 0 40px; border: none; padding: 0px;&quot;&gt;&lt;div&gt;&lt;div&gt;&lt;span style=&quot;background-color: initial;&quot;&gt;float64 timeout&lt;/span&gt;&lt;br&gt;&lt;/div&gt;&lt;/div&gt;&lt;div&gt;---&lt;/div&gt;&lt;div&gt;bool success&lt;/div&gt;&lt;div&gt;&lt;div&gt;&lt;span style=&quot;background-color: initial;&quot;&gt;ms_module_msgs/&lt;/span&gt;JointState[] joint_state_list&lt;br&gt;&lt;/div&gt;&lt;blockquote style=&quot;margin: 0px 0px 0px 40px; border: none; padding: 0px;&quot;&gt;&lt;div&gt;&lt;/div&gt;&lt;/blockquote&gt;&lt;/div&gt;&lt;div&gt;&lt;blockquote style=&quot;margin: 0px 0px 0px 40px; border: none; padding: 0px;&quot;&gt;&lt;/blockquote&gt;&lt;/div&gt;&lt;blockquote style=&quot;margin: 0px 0px 0px 40px; border: none; padding: 0px;&quot;&gt;&lt;/blockquote&gt;&lt;/blockquote&gt;" style="rounded=0;whiteSpace=wrap;html=1;align=left;" parent="1" vertex="1">
                    <mxGeometry x="-750" y="1520" width="290" height="90" as="geometry"/>
                </mxCell>
                <mxCell id="QrT2VM_feHwuqajHNbJx-37" value="&lt;div&gt;&lt;span style=&quot;background-color: rgb(255, 255, 255); font-size: 11px; text-align: center; text-wrap: nowrap;&quot;&gt;GetAll&lt;/span&gt;Absorber&lt;span style=&quot;background-color: rgb(255, 255, 255); font-size: 11px; text-align: center; text-wrap: nowrap;&quot;&gt;State&lt;/span&gt;&lt;/div&gt;&lt;blockquote style=&quot;margin: 0 0 0 40px; border: none; padding: 0px;&quot;&gt;&lt;div&gt;&lt;div&gt;&lt;span style=&quot;background-color: initial;&quot;&gt;float64 timeout&lt;/span&gt;&lt;br&gt;&lt;/div&gt;&lt;/div&gt;&lt;div&gt;---&lt;/div&gt;&lt;div&gt;bool success&lt;/div&gt;&lt;div&gt;&lt;div&gt;&lt;span style=&quot;background-color: initial;&quot;&gt;ms_module_msgs/&lt;/span&gt;&lt;span style=&quot;background-color: initial;&quot;&gt;AbsorberState&lt;/span&gt;[] absorber_state_list&lt;br&gt;&lt;/div&gt;&lt;blockquote style=&quot;margin: 0px 0px 0px 40px; border: none; padding: 0px;&quot;&gt;&lt;div&gt;&lt;/div&gt;&lt;/blockquote&gt;&lt;/div&gt;&lt;div&gt;&lt;blockquote style=&quot;margin: 0px 0px 0px 40px; border: none; padding: 0px;&quot;&gt;&lt;/blockquote&gt;&lt;/div&gt;&lt;blockquote style=&quot;margin: 0px 0px 0px 40px; border: none; padding: 0px;&quot;&gt;&lt;/blockquote&gt;&lt;/blockquote&gt;" style="rounded=0;whiteSpace=wrap;html=1;align=left;" parent="1" vertex="1">
                    <mxGeometry x="-90" y="640" width="290" height="90" as="geometry"/>
                </mxCell>
                <mxCell id="QrT2VM_feHwuqajHNbJx-38" value="&lt;div&gt;&lt;span style=&quot;background-color: initial;&quot;&gt;GetAllConnectorErrorState&lt;/span&gt;&lt;/div&gt;&lt;blockquote style=&quot;margin: 0 0 0 40px; border: none; padding: 0px;&quot;&gt;&lt;div&gt;&lt;div&gt;&lt;span style=&quot;background-color: initial;&quot;&gt;float64 timeout&lt;/span&gt;&lt;br&gt;&lt;/div&gt;&lt;/div&gt;&lt;div&gt;---&lt;/div&gt;&lt;div&gt;bool success&lt;/div&gt;&lt;div&gt;&lt;div&gt;&lt;span style=&quot;background-color: initial;&quot;&gt;ms_module_msgs/&lt;/span&gt;ConnectorErrorState[] connector_error_state_list&lt;br&gt;&lt;/div&gt;&lt;blockquote style=&quot;margin: 0px 0px 0px 40px; border: none; padding: 0px;&quot;&gt;&lt;div&gt;&lt;/div&gt;&lt;/blockquote&gt;&lt;/div&gt;&lt;div&gt;&lt;blockquote style=&quot;margin: 0px 0px 0px 40px; border: none; padding: 0px;&quot;&gt;&lt;/blockquote&gt;&lt;/div&gt;&lt;blockquote style=&quot;margin: 0px 0px 0px 40px; border: none; padding: 0px;&quot;&gt;&lt;/blockquote&gt;&lt;/blockquote&gt;" style="rounded=0;whiteSpace=wrap;html=1;align=left;" parent="1" vertex="1">
                    <mxGeometry x="-420" y="745" width="290" height="90" as="geometry"/>
                </mxCell>
                <mxCell id="QrT2VM_feHwuqajHNbJx-39" value="&lt;div&gt;JointLimitsCmd&lt;/div&gt;&lt;div&gt;&lt;blockquote style=&quot;margin: 0px 0px 0px 40px; border: none; padding: 0px;&quot;&gt;std_msgs/Header header&lt;/blockquote&gt;&lt;blockquote style=&quot;margin: 0px 0px 0px 40px; border: none; padding: 0px;&quot;&gt;&lt;div&gt;&lt;div&gt;ms_module_msgs/ModuleID publisher_id&lt;/div&gt;&lt;div&gt;&lt;/div&gt;&lt;/div&gt;&lt;/blockquote&gt;&lt;blockquote style=&quot;margin: 0px 0px 0px 40px; border: none; padding: 0px;&quot;&gt;ms_module_msgs/JointID joint_id&lt;/blockquote&gt;&lt;/div&gt;&lt;blockquote style=&quot;margin: 0px 0px 0px 40px; border: none; padding: 0px;&quot;&gt;float64 min_angle&lt;/blockquote&gt;&lt;blockquote style=&quot;margin: 0px 0px 0px 40px; border: none; padding: 0px;&quot;&gt;float64 max_angle&lt;br&gt;&lt;/blockquote&gt;&lt;blockquote style=&quot;margin: 0px 0px 0px 40px; border: none; padding: 0px;&quot;&gt;float64 max_velocity&lt;br&gt;&lt;/blockquote&gt;&lt;blockquote style=&quot;margin: 0px 0px 0px 40px; border: none; padding: 0px;&quot;&gt;float64 max_effort&lt;/blockquote&gt;" style="rounded=0;whiteSpace=wrap;html=1;align=left;fillColor=#000000;" parent="1" vertex="1">
                    <mxGeometry x="-750" y="1090" width="290" height="130" as="geometry"/>
                </mxCell>
                <mxCell id="QrT2VM_feHwuqajHNbJx-40" value="&lt;div&gt;&lt;span style=&quot;background-color: rgb(255, 255, 255); text-align: center; text-wrap: nowrap;&quot;&gt;&lt;font style=&quot;font-size: 12px;&quot;&gt;SetConnectorCmdList&lt;/font&gt;&lt;/span&gt;&lt;/div&gt;&lt;blockquote style=&quot;margin: 0 0 0 40px; border: none; padding: 0px;&quot;&gt;ms_module_msgs/&lt;span style=&quot;background-color: initial;&quot;&gt;ConnectorCmd[]&lt;/span&gt;&amp;nbsp;connector_cmd_list&lt;span style=&quot;background-color: initial;&quot;&gt;&lt;br&gt;&lt;/span&gt;&lt;/blockquote&gt;&lt;blockquote style=&quot;margin: 0 0 0 40px; border: none; padding: 0px;&quot;&gt;&lt;div&gt;&lt;div&gt;&lt;span style=&quot;background-color: initial;&quot;&gt;float64 timeout&lt;/span&gt;&lt;br&gt;&lt;/div&gt;&lt;/div&gt;&lt;div&gt;---&lt;/div&gt;&lt;div&gt;bool success&lt;/div&gt;&lt;div&gt;&lt;div&gt;&lt;span style=&quot;background-color: initial;&quot;&gt;ms_module_msgs/&lt;/span&gt;ConnectorState[]connector_state_list&lt;/div&gt;&lt;blockquote style=&quot;margin: 0px 0px 0px 40px; border: none; padding: 0px;&quot;&gt;&lt;/blockquote&gt;&lt;/div&gt;&lt;div&gt;&lt;blockquote style=&quot;margin: 0px 0px 0px 40px; border: none; padding: 0px;&quot;&gt;&lt;div&gt;&lt;/div&gt;&lt;/blockquote&gt;&lt;/div&gt;&lt;div&gt;&lt;blockquote style=&quot;margin: 0px 0px 0px 40px; border: none; padding: 0px;&quot;&gt;&lt;/blockquote&gt;&lt;/div&gt;&lt;blockquote style=&quot;margin: 0px 0px 0px 40px; border: none; padding: 0px;&quot;&gt;&lt;/blockquote&gt;&lt;/blockquote&gt;" style="rounded=0;whiteSpace=wrap;html=1;align=left;" parent="1" vertex="1">
                    <mxGeometry x="-450" y="960" width="330" height="100" as="geometry"/>
                </mxCell>
                <mxCell id="QrT2VM_feHwuqajHNbJx-41" value="&lt;div&gt;&lt;span style=&quot;background-color: rgb(255, 255, 255); text-align: center; text-wrap: nowrap;&quot;&gt;&lt;font style=&quot;font-size: 12px;&quot;&gt;MonitorConnectError&lt;/font&gt;&lt;/span&gt;&lt;/div&gt;&lt;blockquote style=&quot;margin: 0 0 0 40px; border: none; padding: 0px;&quot;&gt;&lt;div&gt;&lt;div&gt;ms_module_msgs/&lt;span style=&quot;background-color: initial;&quot;&gt;ConnectorCmd connector_cmd&lt;/span&gt;&lt;/div&gt;&lt;/div&gt;&lt;div&gt;&lt;div&gt;&lt;span style=&quot;background-color: initial;&quot;&gt;float64 timeout&lt;/span&gt;&lt;/div&gt;&lt;/div&gt;&lt;div&gt;&lt;span style=&quot;background-color: initial;&quot;&gt;---&lt;/span&gt;&lt;br&gt;&lt;/div&gt;&lt;/blockquote&gt;&lt;blockquote style=&quot;margin: 0 0 0 40px; border: none; padding: 0px;&quot;&gt;&lt;div&gt;bool is_error_detected&lt;/div&gt;&lt;div&gt;&lt;div&gt;---&lt;/div&gt;&lt;div&gt;&lt;div&gt;bool success&lt;/div&gt;&lt;div&gt;&lt;span style=&quot;background-color: initial;&quot;&gt;ms_module_msgs/&lt;/span&gt;ConnectorErrorState&amp;nbsp;&lt;span style=&quot;background-color: initial;&quot;&gt;connectors_error_state&lt;/span&gt;&lt;br&gt;&lt;/div&gt;&lt;div&gt;&lt;/div&gt;&lt;/div&gt;&lt;blockquote style=&quot;margin: 0px 0px 0px 40px; border: none; padding: 0px;&quot;&gt;&lt;/blockquote&gt;&lt;/div&gt;&lt;div&gt;&lt;blockquote style=&quot;margin: 0px 0px 0px 40px; border: none; padding: 0px;&quot;&gt;&lt;div&gt;&lt;/div&gt;&lt;/blockquote&gt;&lt;/div&gt;&lt;div&gt;&lt;blockquote style=&quot;margin: 0px 0px 0px 40px; border: none; padding: 0px;&quot;&gt;&lt;/blockquote&gt;&lt;/div&gt;&lt;blockquote style=&quot;margin: 0px 0px 0px 40px; border: none; padding: 0px;&quot;&gt;&lt;/blockquote&gt;&lt;/blockquote&gt;" style="rounded=0;whiteSpace=wrap;html=1;align=left;" parent="1" vertex="1">
                    <mxGeometry x="-420" y="1070" width="290" height="140" as="geometry"/>
                </mxCell>
                <mxCell id="QrT2VM_feHwuqajHNbJx-42" value="&lt;div&gt;GetLeaderName&lt;/div&gt;&lt;blockquote style=&quot;margin: 0 0 0 40px; border: none; padding: 0px;&quot;&gt;&lt;div&gt;&lt;span style=&quot;background-color: initial;&quot;&gt;std_msgs/Header header&lt;/span&gt;&lt;/div&gt;&lt;div&gt;ms_module_msgs/ModuleID&amp;nbsp;&lt;span style=&quot;background-color: initial;&quot;&gt;publisher_id&lt;/span&gt;&lt;/div&gt;&lt;div&gt;---&lt;/div&gt;&lt;div&gt;&lt;div&gt;bool success&lt;/div&gt;&lt;div&gt;&lt;/div&gt;&lt;/div&gt;&lt;div&gt;&lt;div&gt;&lt;span style=&quot;background-color: initial;&quot;&gt;std_msgs/Header header&lt;/span&gt;&lt;/div&gt;&lt;/div&gt;&lt;div&gt;&lt;div&gt;ms_module_msgs/ModuleID responsor_id&lt;/div&gt;&lt;/div&gt;&lt;div&gt;&lt;div&gt;&lt;div&gt;ms_module_msgs/ModuleID leader_id&lt;/div&gt;&lt;div&gt;&lt;/div&gt;&lt;/div&gt;&lt;/div&gt;&lt;div&gt;&lt;/div&gt;&lt;/blockquote&gt;" style="rounded=0;whiteSpace=wrap;html=1;align=left;" parent="1" vertex="1">
                    <mxGeometry x="2850" y="265" width="290" height="125" as="geometry"/>
                </mxCell>
                <mxCell id="xdEJ6ReJawz9jpI3sWNv-1" value="&lt;div&gt;JointsLimitsCmds&lt;/div&gt;&lt;div&gt;&lt;blockquote style=&quot;margin: 0px 0px 0px 40px; border: none; padding: 0px;&quot;&gt;ms_module_msgs/&lt;span style=&quot;background-color: initial;&quot;&gt;JointLimitsCmd&lt;/span&gt;[] joints_&lt;span style=&quot;background-color: initial;&quot;&gt;limits&lt;/span&gt;&lt;br&gt;&lt;/blockquote&gt;&lt;/div&gt;&lt;div&gt;&lt;span style=&quot;background-color: initial;&quot;&gt;&lt;br&gt;&lt;/span&gt;&lt;/div&gt;" style="rounded=0;whiteSpace=wrap;html=1;align=left;fillColor=#000000;" parent="1" vertex="1">
                    <mxGeometry x="-750" y="1230" width="300" height="60" as="geometry"/>
                </mxCell>
                <mxCell id="xdEJ6ReJawz9jpI3sWNv-4" value="&lt;div&gt;MotorsState&lt;/div&gt;&lt;blockquote style=&quot;margin: 0 0 0 40px; border: none; padding: 0px;&quot;&gt;&lt;div&gt;ms_module_msgs/&lt;span style=&quot;background-color: initial;&quot;&gt;MotorState[] motors_state&lt;/span&gt;&lt;/div&gt;&lt;div&gt;&lt;/div&gt;&lt;/blockquote&gt;" style="rounded=0;whiteSpace=wrap;html=1;align=left;fillColor=#000000;" parent="1" vertex="1">
                    <mxGeometry x="1450" y="490" width="290" height="60" as="geometry"/>
                </mxCell>
                <mxCell id="xdEJ6ReJawz9jpI3sWNv-5" value="&lt;div&gt;&lt;span style=&quot;background-color: rgb(255, 255, 255); text-align: center; text-wrap: nowrap;&quot;&gt;&lt;font style=&quot;font-size: 12px;&quot;&gt;SetConnectorCmd&lt;/font&gt;&lt;/span&gt;&lt;/div&gt;&lt;blockquote style=&quot;margin: 0 0 0 40px; border: none; padding: 0px;&quot;&gt;ms_module_msgs/&lt;span style=&quot;background-color: initial;&quot;&gt;ConnectorCmd&lt;/span&gt;&amp;nbsp;connector_cmd&lt;span style=&quot;background-color: initial;&quot;&gt;&lt;br&gt;&lt;/span&gt;&lt;/blockquote&gt;&lt;blockquote style=&quot;margin: 0 0 0 40px; border: none; padding: 0px;&quot;&gt;&lt;div&gt;&lt;div&gt;&lt;span style=&quot;background-color: initial;&quot;&gt;float64 timeout&lt;/span&gt;&lt;br&gt;&lt;/div&gt;&lt;/div&gt;&lt;div&gt;---&lt;/div&gt;&lt;div&gt;bool success&lt;/div&gt;&lt;div&gt;&lt;div&gt;&lt;span style=&quot;background-color: initial;&quot;&gt;ms_module_msgs/&lt;/span&gt;ConnectorState connector_state&lt;/div&gt;&lt;blockquote style=&quot;margin: 0px 0px 0px 40px; border: none; padding: 0px;&quot;&gt;&lt;/blockquote&gt;&lt;/div&gt;&lt;div&gt;&lt;blockquote style=&quot;margin: 0px 0px 0px 40px; border: none; padding: 0px;&quot;&gt;&lt;div&gt;&lt;/div&gt;&lt;/blockquote&gt;&lt;/div&gt;&lt;div&gt;&lt;blockquote style=&quot;margin: 0px 0px 0px 40px; border: none; padding: 0px;&quot;&gt;&lt;/blockquote&gt;&lt;/div&gt;&lt;blockquote style=&quot;margin: 0px 0px 0px 40px; border: none; padding: 0px;&quot;&gt;&lt;/blockquote&gt;&lt;/blockquote&gt;" style="rounded=0;whiteSpace=wrap;html=1;align=left;" parent="1" vertex="1">
                    <mxGeometry x="-435" y="850" width="320" height="100" as="geometry"/>
                </mxCell>
                <mxCell id="-pxhW9KgC5FIqrOKi98G-1" value="&lt;div&gt;&lt;font style=&quot;font-size: 12px;&quot;&gt;LeaderName&lt;/font&gt;&lt;/div&gt;&lt;blockquote style=&quot;margin: 0 0 0 40px; border: none; padding: 0px;&quot;&gt;&lt;div&gt;&lt;span style=&quot;background-color: initial;&quot;&gt;std_msgs/Header header&lt;/span&gt;&lt;/div&gt;&lt;div&gt;ms_module_msgs/ModuleID publisher_id&lt;/div&gt;&lt;div&gt;&lt;div&gt;&lt;div&gt;ms_module_msgs/ModuleID leader_id&lt;/div&gt;&lt;div&gt;&lt;/div&gt;&lt;/div&gt;&lt;/div&gt;&lt;div&gt;&lt;/div&gt;&lt;/blockquote&gt;" style="rounded=0;whiteSpace=wrap;html=1;align=left;" parent="1" vertex="1">
                    <mxGeometry x="2850" y="160" width="290" height="90" as="geometry"/>
                </mxCell>
                <mxCell id="-pxhW9KgC5FIqrOKi98G-2" value="&lt;div&gt;SetLed&lt;/div&gt;&lt;blockquote style=&quot;margin: 0 0 0 40px; border: none; padding: 0px;&quot;&gt;&lt;div&gt;&lt;span style=&quot;background-color: initial;&quot;&gt;std_msgs/Header header&lt;/span&gt;&lt;/div&gt;&lt;div&gt;ms_module_msgs/ModuleID publisher_id&lt;/div&gt;&lt;div&gt;&lt;span style=&quot;background-color: initial;&quot;&gt;bool light_up&lt;br&gt;---&lt;/span&gt;&lt;/div&gt;&lt;div&gt;&lt;div&gt;&lt;div&gt;bool success&lt;/div&gt;&lt;div&gt;&lt;/div&gt;&lt;/div&gt;&lt;div&gt;&lt;/div&gt;&lt;/div&gt;&lt;div&gt;&lt;div&gt;&lt;div&gt;&lt;/div&gt;&lt;/div&gt;&lt;/div&gt;&lt;div&gt;&lt;/div&gt;&lt;/blockquote&gt;" style="rounded=0;whiteSpace=wrap;html=1;align=left;" parent="1" vertex="1">
                    <mxGeometry x="2080" y="250" width="290" height="95" as="geometry"/>
                </mxCell>
                <mxCell id="-pxhW9KgC5FIqrOKi98G-3" value="&lt;div&gt;&lt;span style=&quot;background-color: initial; text-wrap: nowrap;&quot;&gt;SetLinkingConnectorsCmd&lt;/span&gt;&lt;/div&gt;&lt;blockquote style=&quot;margin: 0 0 0 40px; border: none; padding: 0px;&quot;&gt;&lt;span style=&quot;background-color: initial;&quot;&gt;ms_module_msgs/LinkingConnectorsCmd linking_connectors_cmd&lt;/span&gt;&lt;br&gt;&lt;/blockquote&gt;&lt;blockquote style=&quot;margin: 0 0 0 40px; border: none; padding: 0px;&quot;&gt;&lt;div&gt;&lt;div&gt;float64 timeout&lt;/div&gt;&lt;div&gt;---&lt;/div&gt;&lt;div&gt;bool success&lt;/div&gt;&lt;div&gt;ms_module_msgs/LinkingConnectorsState linking_connectors_state&lt;/div&gt;&lt;/div&gt;&lt;div&gt;&lt;blockquote style=&quot;margin: 0px 0px 0px 40px; border: none; padding: 0px;&quot;&gt;&lt;/blockquote&gt;&lt;/div&gt;&lt;div&gt;&lt;blockquote style=&quot;margin: 0px 0px 0px 40px; border: none; padding: 0px;&quot;&gt;&lt;div&gt;&lt;/div&gt;&lt;/blockquote&gt;&lt;/div&gt;&lt;div&gt;&lt;blockquote style=&quot;margin: 0px 0px 0px 40px; border: none; padding: 0px;&quot;&gt;&lt;/blockquote&gt;&lt;/div&gt;&lt;blockquote style=&quot;margin: 0px 0px 0px 40px; border: none; padding: 0px;&quot;&gt;&lt;/blockquote&gt;&lt;/blockquote&gt;" style="rounded=0;whiteSpace=wrap;html=1;align=left;" parent="1" vertex="1">
                    <mxGeometry x="2410" y="460" width="450" height="100" as="geometry"/>
                </mxCell>
                <mxCell id="-pxhW9KgC5FIqrOKi98G-4" value="非常に重要なので、返信する時にleader_or_follower_concession_nodeの身分も" style="text;html=1;align=center;verticalAlign=middle;whiteSpace=wrap;rounded=0;" parent="1" vertex="1">
                    <mxGeometry x="2860" y="390" width="260" height="30" as="geometry"/>
                </mxCell>
                <mxCell id="R07cYY1C4QJIRtcnvtbv-2" value="&lt;div style=&quot;text-align: left;&quot;&gt;&lt;span style=&quot;background-color: initial;&quot;&gt;GetAllLinkingConnectorsState&lt;/span&gt;&lt;span style=&quot;background-color: initial;&quot;&gt;&amp;nbsp;&lt;/span&gt;&lt;/div&gt;&lt;blockquote style=&quot;margin: 0 0 0 40px; border: none; padding: 0px;&quot;&gt;&lt;span style=&quot;background-color: initial;&quot;&gt;float64 timeout&lt;/span&gt;&lt;br&gt;&lt;/blockquote&gt;&lt;blockquote style=&quot;margin: 0 0 0 40px; border: none; padding: 0px;&quot;&gt;&lt;div&gt;---&lt;/div&gt;&lt;div&gt;bool success&lt;/div&gt;&lt;div&gt;&lt;div&gt;ms_module_msgs/LinkingConnectorsState[] linking_connectors_state_list&lt;br&gt;&lt;/div&gt;&lt;blockquote style=&quot;margin: 0px 0px 0px 40px; border: none; padding: 0px;&quot;&gt;&lt;/blockquote&gt;&lt;/div&gt;&lt;div&gt;&lt;blockquote style=&quot;margin: 0px 0px 0px 40px; border: none; padding: 0px;&quot;&gt;&lt;div&gt;&lt;/div&gt;&lt;/blockquote&gt;&lt;/div&gt;&lt;div&gt;&lt;blockquote style=&quot;margin: 0px 0px 0px 40px; border: none; padding: 0px;&quot;&gt;&lt;/blockquote&gt;&lt;/div&gt;&lt;blockquote style=&quot;margin: 0px 0px 0px 40px; border: none; padding: 0px;&quot;&gt;&lt;/blockquote&gt;&lt;/blockquote&gt;" style="rounded=0;whiteSpace=wrap;html=1;align=left;" parent="1" vertex="1">
                    <mxGeometry x="2410" y="580" width="450" height="90" as="geometry"/>
                </mxCell>
                <mxCell id="R07cYY1C4QJIRtcnvtbv-5" value="&lt;div&gt;&lt;span style=&quot;text-align: left;&quot;&gt;Moonshot Unique Identifiers&lt;br&gt;&lt;/span&gt;&lt;/div&gt;&lt;span style=&quot;text-align: left;&quot;&gt;typeと&lt;/span&gt;&lt;span style=&quot;text-align: left; background-color: initial;&quot;&gt;subtypeが不要の場合、空欄する&lt;/span&gt;" style="text;html=1;align=center;verticalAlign=middle;whiteSpace=wrap;rounded=0;" parent="1" vertex="1">
                    <mxGeometry x="-1055" y="130" width="260" height="30" as="geometry"/>
                </mxCell>
                <mxCell id="R07cYY1C4QJIRtcnvtbv-8" value="&lt;div&gt;&lt;font style=&quot;font-size: 12px;&quot;&gt;ModuleID&lt;/font&gt;&lt;/div&gt;&lt;blockquote style=&quot;margin: 0 0 0 40px; border: none; padding: 0px;&quot;&gt;&lt;div&gt;&lt;div&gt;string type&lt;/div&gt;&lt;div&gt;string subtype&lt;/div&gt;&lt;div&gt;&lt;span style=&quot;background-color: initial;&quot;&gt;int64 num&lt;/span&gt;&lt;/div&gt;&lt;/div&gt;&lt;/blockquote&gt;" style="rounded=0;whiteSpace=wrap;html=1;align=left;" parent="1" vertex="1">
                    <mxGeometry x="-1060" y="160" width="290" height="80" as="geometry"/>
                </mxCell>
                <mxCell id="VpS6G82rEDgOyCU6AMGG-4" value="joint_name:&lt;div&gt;&amp;nbsp;{$module_type}_&lt;span style=&quot;background-color: initial;&quot;&gt;{$module_subtype}_&lt;/span&gt;&lt;span style=&quot;background-color: initial;&quot;&gt;{$modulenum}&lt;/span&gt;&lt;/div&gt;&lt;div&gt;&lt;span style=&quot;background-color: initial;&quot;&gt;_&lt;/span&gt;&lt;span style=&quot;background-color: initial;&quot;&gt;{$type}_&lt;/span&gt;&lt;span style=&quot;background-color: initial;&quot;&gt;{$subtype}_{$num}&lt;/span&gt;&lt;/div&gt;" style="rounded=0;whiteSpace=wrap;html=1;align=left;" parent="1" vertex="1">
                    <mxGeometry x="-1060" y="250" width="290" height="80" as="geometry"/>
                </mxCell>
                <mxCell id="VpS6G82rEDgOyCU6AMGG-14" value="&lt;div&gt;AbsorberID&lt;/div&gt;&lt;blockquote style=&quot;margin: 0px 0px 0px 40px; border: none; padding: 0px;&quot;&gt;ms_module_msgs/&lt;span style=&quot;background-color: initial;&quot;&gt;ConnectorID connector&lt;/span&gt;_id&lt;/blockquote&gt;" style="rounded=0;whiteSpace=wrap;html=1;align=left;" parent="1" vertex="1">
                    <mxGeometry x="-90" y="160" width="290" height="80" as="geometry"/>
                </mxCell>
                <mxCell id="VpS6G82rEDgOyCU6AMGG-15" value="&lt;div&gt;&lt;span style=&quot;background-color: initial;&quot;&gt;Absorber&lt;/span&gt;State&lt;/div&gt;&lt;blockquote style=&quot;margin: 0 0 0 40px; border: none; padding: 0px;&quot;&gt;&lt;div&gt;std_msgs/Header header&lt;/div&gt;&lt;div&gt;ms_module_msgs/AbsorberID absorber_id&lt;/div&gt;&lt;div&gt;&lt;div&gt;bool is_to_absorb_device_locked&lt;/div&gt;&lt;div&gt;&lt;span style=&quot;background-color: initial;&quot;&gt;bool is_healthy&lt;/span&gt;&lt;br&gt;&lt;/div&gt;&lt;/div&gt;&lt;div&gt;string error_str&lt;/div&gt;&lt;div&gt;string[] error_indexes&lt;/div&gt;&lt;div&gt;int64[] error_values&lt;/div&gt;&lt;/blockquote&gt;" style="rounded=0;whiteSpace=wrap;html=1;align=left;" parent="1" vertex="1">
                    <mxGeometry x="-90" y="250" width="290" height="140" as="geometry"/>
                </mxCell>
                <mxCell id="VpS6G82rEDgOyCU6AMGG-16" value="&lt;div&gt;&lt;span style=&quot;background-color: initial;&quot;&gt;AbsorberCmd&lt;/span&gt;&lt;/div&gt;&lt;blockquote style=&quot;margin: 0 0 0 40px; border: none; padding: 0px;&quot;&gt;&lt;div&gt;std_msgs/Header header&lt;/div&gt;&lt;div&gt;&lt;div&gt;&lt;div&gt;ms_module_msgs/ModuleID publisher_id&lt;/div&gt;&lt;div&gt;&lt;/div&gt;&lt;/div&gt;&lt;div&gt;ms_module_msgs/AbsorberID&amp;nbsp;absorber_id&lt;/div&gt;&lt;div&gt;&lt;/div&gt;&lt;div&gt;&lt;span style=&quot;background-color: initial;&quot;&gt;bool lock_or_unlock&lt;/span&gt;&lt;br&gt;&lt;/div&gt;&lt;/div&gt;&lt;/blockquote&gt;" style="rounded=0;whiteSpace=wrap;html=1;align=left;" parent="1" vertex="1">
                    <mxGeometry x="-90" y="400" width="290" height="100" as="geometry"/>
                </mxCell>
                <mxCell id="VpS6G82rEDgOyCU6AMGG-17" value="&lt;div&gt;&lt;span style=&quot;background-color: initial;&quot;&gt;Absorber&lt;/span&gt;ErrorState&lt;/div&gt;&lt;blockquote style=&quot;margin: 0 0 0 40px; border: none; padding: 0px;&quot;&gt;&lt;div&gt;&lt;div&gt;std_msgs/Header header&lt;/div&gt;&lt;/div&gt;&lt;/blockquote&gt;&lt;blockquote style=&quot;margin: 0 0 0 40px; border: none; padding: 0px;&quot;&gt;&lt;div&gt;ms_module_msgs/AbsorberID&amp;nbsp;absorber_id&lt;/div&gt;&lt;div&gt;&lt;/div&gt;&lt;div&gt;&lt;span style=&quot;background-color: initial;&quot;&gt;bool is_healthy&lt;/span&gt;&lt;br&gt;&lt;/div&gt;&lt;div&gt;&lt;div&gt;string error_str&lt;/div&gt;&lt;/div&gt;&lt;div&gt;&lt;span style=&quot;background-color: initial;&quot;&gt;string[] error_indexes&lt;/span&gt;&lt;br&gt;&lt;/div&gt;&lt;div&gt;int64[] error_values&lt;/div&gt;&lt;/blockquote&gt;" style="rounded=0;whiteSpace=wrap;html=1;align=left;" parent="1" vertex="1">
                    <mxGeometry x="-90" y="510" width="290" height="110" as="geometry"/>
                </mxCell>
                <mxCell id="VpS6G82rEDgOyCU6AMGG-18" value="&lt;div&gt;&lt;span style=&quot;background-color: rgb(255, 255, 255); text-align: center; text-wrap: nowrap;&quot;&gt;&lt;font style=&quot;font-size: 12px;&quot;&gt;GetAllConnectorState&lt;/font&gt;&lt;/span&gt;&lt;/div&gt;&lt;blockquote style=&quot;margin: 0 0 0 40px; border: none; padding: 0px;&quot;&gt;&lt;div&gt;&lt;div&gt;&lt;span style=&quot;background-color: initial;&quot;&gt;float64 timeout&lt;/span&gt;&lt;br&gt;&lt;/div&gt;&lt;/div&gt;&lt;div&gt;---&lt;/div&gt;&lt;div&gt;bool success&lt;/div&gt;&lt;div&gt;&lt;div&gt;&lt;span style=&quot;background-color: initial;&quot;&gt;ms_module_msgs/&lt;/span&gt;&lt;span style=&quot;background-color: initial;&quot;&gt;ConnectorState&lt;/span&gt;[]connector_state_list&lt;br&gt;&lt;/div&gt;&lt;blockquote style=&quot;margin: 0px 0px 0px 40px; border: none; padding: 0px;&quot;&gt;&lt;div&gt;&lt;/div&gt;&lt;/blockquote&gt;&lt;/div&gt;&lt;div&gt;&lt;blockquote style=&quot;margin: 0px 0px 0px 40px; border: none; padding: 0px;&quot;&gt;&lt;/blockquote&gt;&lt;/div&gt;&lt;blockquote style=&quot;margin: 0px 0px 0px 40px; border: none; padding: 0px;&quot;&gt;&lt;/blockquote&gt;&lt;/blockquote&gt;" style="rounded=0;whiteSpace=wrap;html=1;align=left;" parent="1" vertex="1">
                    <mxGeometry x="-420" y="640" width="290" height="90" as="geometry"/>
                </mxCell>
                <mxCell id="VpS6G82rEDgOyCU6AMGG-20" value="&lt;div&gt;&lt;span style=&quot;background-color: initial;&quot;&gt;GetAll&lt;/span&gt;&lt;span style=&quot;background-color: initial;&quot;&gt;Absorber&lt;/span&gt;&lt;span style=&quot;background-color: initial;&quot;&gt;ErrorState&lt;/span&gt;&lt;/div&gt;&lt;blockquote style=&quot;margin: 0 0 0 40px; border: none; padding: 0px;&quot;&gt;&lt;div&gt;&lt;div&gt;&lt;span style=&quot;background-color: initial;&quot;&gt;float64 timeout&lt;/span&gt;&lt;br&gt;&lt;/div&gt;&lt;/div&gt;&lt;div&gt;---&lt;/div&gt;&lt;div&gt;bool success&lt;/div&gt;&lt;div&gt;&lt;div&gt;&lt;span style=&quot;background-color: initial;&quot;&gt;ms_module_msgs/&lt;/span&gt;AbsorberErrorState[] absorber_error_state_list&lt;br&gt;&lt;/div&gt;&lt;blockquote style=&quot;margin: 0px 0px 0px 40px; border: none; padding: 0px;&quot;&gt;&lt;div&gt;&lt;/div&gt;&lt;/blockquote&gt;&lt;/div&gt;&lt;div&gt;&lt;blockquote style=&quot;margin: 0px 0px 0px 40px; border: none; padding: 0px;&quot;&gt;&lt;/blockquote&gt;&lt;/div&gt;&lt;blockquote style=&quot;margin: 0px 0px 0px 40px; border: none; padding: 0px;&quot;&gt;&lt;/blockquote&gt;&lt;/blockquote&gt;" style="rounded=0;whiteSpace=wrap;html=1;align=left;" parent="1" vertex="1">
                    <mxGeometry x="-90" y="745" width="290" height="90" as="geometry"/>
                </mxCell>
                <mxCell id="TYOJv0u8ApBgMKhItn4c-1" value="&lt;div&gt;&lt;span style=&quot;background-color: rgb(255, 255, 255); text-align: center; text-wrap: nowrap;&quot;&gt;&lt;font style=&quot;font-size: 12px;&quot;&gt;SetAbsorberCmd&lt;/font&gt;&lt;/span&gt;&lt;/div&gt;&lt;blockquote style=&quot;margin: 0 0 0 40px; border: none; padding: 0px;&quot;&gt;ms_module_msgs/Absorber&lt;span style=&quot;background-color: initial;&quot;&gt;Cmd&lt;/span&gt;&amp;nbsp;absorber_cmd&lt;span style=&quot;background-color: initial;&quot;&gt;&lt;br&gt;&lt;/span&gt;&lt;/blockquote&gt;&lt;blockquote style=&quot;margin: 0 0 0 40px; border: none; padding: 0px;&quot;&gt;&lt;div&gt;&lt;div&gt;&lt;span style=&quot;background-color: initial;&quot;&gt;float64 timeout&lt;/span&gt;&lt;br&gt;&lt;/div&gt;&lt;/div&gt;&lt;div&gt;---&lt;/div&gt;&lt;div&gt;bool success&lt;/div&gt;&lt;div&gt;&lt;div&gt;&lt;span style=&quot;background-color: initial;&quot;&gt;ms_module_msgs/&lt;/span&gt;AbsorberState absorber_state&lt;/div&gt;&lt;blockquote style=&quot;margin: 0px 0px 0px 40px; border: none; padding: 0px;&quot;&gt;&lt;/blockquote&gt;&lt;/div&gt;&lt;div&gt;&lt;blockquote style=&quot;margin: 0px 0px 0px 40px; border: none; padding: 0px;&quot;&gt;&lt;div&gt;&lt;/div&gt;&lt;/blockquote&gt;&lt;/div&gt;&lt;div&gt;&lt;blockquote style=&quot;margin: 0px 0px 0px 40px; border: none; padding: 0px;&quot;&gt;&lt;/blockquote&gt;&lt;/div&gt;&lt;blockquote style=&quot;margin: 0px 0px 0px 40px; border: none; padding: 0px;&quot;&gt;&lt;/blockquote&gt;&lt;/blockquote&gt;" style="rounded=0;whiteSpace=wrap;html=1;align=left;" parent="1" vertex="1">
                    <mxGeometry x="-100" y="850" width="320" height="100" as="geometry"/>
                </mxCell>
                <mxCell id="TYOJv0u8ApBgMKhItn4c-2" value="&lt;div&gt;&lt;span style=&quot;background-color: rgb(255, 255, 255); text-align: center; text-wrap: nowrap;&quot;&gt;&lt;font style=&quot;font-size: 12px;&quot;&gt;SetAbsorberCmdList&lt;/font&gt;&lt;/span&gt;&lt;/div&gt;&lt;blockquote style=&quot;margin: 0 0 0 40px; border: none; padding: 0px;&quot;&gt;ms_module_msgs/Absorber&lt;span style=&quot;background-color: initial;&quot;&gt;Cmd[]&lt;/span&gt;&amp;nbsp;absorber_cmd_list&lt;span style=&quot;background-color: initial;&quot;&gt;&lt;br&gt;&lt;/span&gt;&lt;/blockquote&gt;&lt;blockquote style=&quot;margin: 0 0 0 40px; border: none; padding: 0px;&quot;&gt;&lt;div&gt;&lt;div&gt;&lt;span style=&quot;background-color: initial;&quot;&gt;float64 timeout&lt;/span&gt;&lt;br&gt;&lt;/div&gt;&lt;/div&gt;&lt;div&gt;---&lt;/div&gt;&lt;div&gt;bool success&lt;/div&gt;&lt;div&gt;&lt;div&gt;&lt;span style=&quot;background-color: initial;&quot;&gt;ms_module_msgs/&lt;/span&gt;AbsorberState[] absorber_state_list&lt;/div&gt;&lt;blockquote style=&quot;margin: 0px 0px 0px 40px; border: none; padding: 0px;&quot;&gt;&lt;/blockquote&gt;&lt;/div&gt;&lt;div&gt;&lt;blockquote style=&quot;margin: 0px 0px 0px 40px; border: none; padding: 0px;&quot;&gt;&lt;div&gt;&lt;/div&gt;&lt;/blockquote&gt;&lt;/div&gt;&lt;div&gt;&lt;blockquote style=&quot;margin: 0px 0px 0px 40px; border: none; padding: 0px;&quot;&gt;&lt;/blockquote&gt;&lt;/div&gt;&lt;blockquote style=&quot;margin: 0px 0px 0px 40px; border: none; padding: 0px;&quot;&gt;&lt;/blockquote&gt;&lt;/blockquote&gt;" style="rounded=0;whiteSpace=wrap;html=1;align=left;" parent="1" vertex="1">
                    <mxGeometry x="-110" y="960" width="340" height="100" as="geometry"/>
                </mxCell>
                <mxCell id="TYOJv0u8ApBgMKhItn4c-6" value="&lt;span style=&quot;background-color: rgb(255, 255, 255); text-align: center; text-wrap: nowrap;&quot;&gt;&lt;font style=&quot;font-size: 12px;&quot;&gt;GetAliveness&lt;/font&gt;&lt;/span&gt;&lt;br&gt;&lt;blockquote style=&quot;margin: 0 0 0 40px; border: none; padding: 0px;&quot;&gt;&lt;div&gt;&lt;span style=&quot;background-color: initial;&quot;&gt;float64 timeout&lt;/span&gt;&lt;/div&gt;&lt;div&gt;&lt;span style=&quot;background-color: initial;&quot;&gt;---&lt;/span&gt;&lt;/div&gt;&lt;div&gt;&lt;span style=&quot;background-color: initial;&quot;&gt;bool success&lt;/span&gt;&lt;/div&gt;&lt;div&gt;bool activating_or_sleeping&lt;/div&gt;&lt;/blockquote&gt;" style="rounded=0;whiteSpace=wrap;html=1;align=left;" parent="1" vertex="1">
                    <mxGeometry x="2890" y="440" width="290" height="80" as="geometry"/>
                </mxCell>
                <mxCell id="TYOJv0u8ApBgMKhItn4c-7" value="&lt;span style=&quot;text-align: center; text-wrap: nowrap; background-color: rgb(255, 255, 255);&quot;&gt;&lt;font style=&quot;font-size: 12px;&quot;&gt;GetRanks&lt;/font&gt;&lt;/span&gt;&lt;br&gt;&lt;blockquote style=&quot;margin: 0 0 0 40px; border: none; padding: 0px;&quot;&gt;&lt;div&gt;&lt;span style=&quot;background-color: initial;&quot;&gt;float64 timeout&lt;/span&gt;&lt;/div&gt;&lt;div&gt;&lt;span style=&quot;background-color: initial;&quot;&gt;---&lt;/span&gt;&lt;/div&gt;&lt;div&gt;&lt;span style=&quot;background-color: initial;&quot;&gt;bool success&lt;/span&gt;&lt;/div&gt;&lt;div&gt;ms_module_msgs/ModuleID[] sorted_module_list&amp;nbsp;&lt;br&gt;&lt;/div&gt;&lt;/blockquote&gt;" style="rounded=0;whiteSpace=wrap;html=1;align=left;" parent="1" vertex="1">
                    <mxGeometry x="2890" y="640" width="320" height="80" as="geometry"/>
                </mxCell>
                <mxCell id="TYOJv0u8ApBgMKhItn4c-8" value="&lt;font style=&quot;font-size: 12px;&quot;&gt;&lt;span style=&quot;background-color: rgb(255, 255, 255); text-align: center; text-wrap: nowrap;&quot;&gt;GetAlivenessList&lt;/span&gt;&lt;br&gt;&lt;/font&gt;&lt;blockquote style=&quot;margin: 0 0 0 40px; border: none; padding: 0px;&quot;&gt;&lt;div&gt;&lt;span style=&quot;background-color: initial;&quot;&gt;float64 timeout&lt;/span&gt;&lt;/div&gt;&lt;div&gt;&lt;span style=&quot;background-color: initial;&quot;&gt;---&lt;/span&gt;&lt;/div&gt;&lt;div&gt;&lt;span style=&quot;background-color: initial;&quot;&gt;bool success&lt;/span&gt;&lt;/div&gt;&lt;div&gt;ms_module_msgs/ModuleID[] module_list&amp;nbsp;&lt;span style=&quot;background-color: initial;&quot;&gt;&lt;br&gt;&lt;/span&gt;&lt;/div&gt;&lt;div&gt;bool[] activating_or_sleeping&lt;/div&gt;&lt;/blockquote&gt;" style="rounded=0;whiteSpace=wrap;html=1;align=left;" parent="1" vertex="1">
                    <mxGeometry x="2890" y="530" width="290" height="100" as="geometry"/>
                </mxCell>
                <mxCell id="TYOJv0u8ApBgMKhItn4c-9" value="&lt;div&gt;&lt;span style=&quot;background-color: rgb(255, 255, 255); text-align: center; text-wrap: nowrap;&quot;&gt;&lt;font style=&quot;font-size: 12px;&quot;&gt;SetOrientation&lt;/font&gt;&lt;/span&gt;&lt;/div&gt;&lt;blockquote style=&quot;margin: 0 0 0 40px; border: none; padding: 0px;&quot;&gt;&lt;div&gt;&lt;span style=&quot;background-color: initial;&quot;&gt;std_msgs/Header header&lt;/span&gt;&lt;/div&gt;&lt;div&gt;ms_module_msgs/ModuleID publisher_id&lt;/div&gt;&lt;div&gt;&lt;span style=&quot;background-color: initial;&quot;&gt;bool roll&lt;/span&gt;&lt;/div&gt;&lt;div&gt;&lt;span style=&quot;background-color: initial;&quot;&gt;bool pitch&lt;/span&gt;&lt;/div&gt;&lt;div&gt;&lt;span style=&quot;background-color: initial;&quot;&gt;bool yaw&lt;br&gt;---&lt;/span&gt;&lt;/div&gt;&lt;div&gt;&lt;div&gt;&lt;div&gt;bool success&lt;/div&gt;&lt;div&gt;&lt;/div&gt;&lt;/div&gt;&lt;div&gt;&lt;/div&gt;&lt;/div&gt;&lt;div&gt;&lt;div&gt;&lt;div&gt;&lt;/div&gt;&lt;/div&gt;&lt;/div&gt;&lt;div&gt;&lt;/div&gt;&lt;/blockquote&gt;" style="rounded=0;whiteSpace=wrap;html=1;align=left;" parent="1" vertex="1">
                    <mxGeometry x="2080" y="362.5" width="290" height="127.5" as="geometry"/>
                </mxCell>
                <mxCell id="pcXcdwncbSQso5UvpWup-1" value="&lt;div&gt;ModuleState&lt;/div&gt;&lt;blockquote style=&quot;margin: 0 0 0 40px; border: none; padding: 0px;&quot;&gt;&lt;div&gt;std_msgs/Header header&lt;/div&gt;ms_module_msgs/ModuleID module_id&lt;div&gt;&lt;/div&gt;&lt;span style=&quot;background-color: initial;&quot;&gt;ms_module_msgs/&lt;/span&gt;JointState[] joint_state_list&lt;br&gt;&lt;span style=&quot;background-color: initial;&quot;&gt;ms_module_msgs/&lt;/span&gt;ConnectorState[]connector_state_list&lt;br&gt;&lt;span style=&quot;background-color: initial;&quot;&gt;ms_module_msgs/&lt;/span&gt;&lt;span style=&quot;background-color: initial;&quot;&gt;AbsorberState&lt;/span&gt;[] absorber_state_list&lt;/blockquote&gt;&lt;blockquote style=&quot;margin: 0 0 0 40px; border: none; padding: 0px;&quot;&gt;&lt;span style=&quot;background-color: initial;&quot;&gt;ms_module_msgs/LinkingConnectorsState[] linking_connectors_state_list&lt;/span&gt;&lt;/blockquote&gt;&lt;blockquote style=&quot;margin: 0 0 0 40px; border: none; padding: 0px;&quot;&gt;&lt;span style=&quot;background-color: initial;&quot;&gt;geometry_msgs/Pose&lt;/span&gt;&lt;span style=&quot;background-color: initial;&quot;&gt;&amp;nbsp;robot_pose&lt;/span&gt;&lt;br&gt;&lt;/blockquote&gt;&lt;blockquote style=&quot;margin: 0px 0px 0px 40px; border: none; padding: 0px;&quot;&gt;&lt;/blockquote&gt;&lt;blockquote style=&quot;margin: 0px 0px 0px 40px; border: none; padding: 0px;&quot;&gt;&lt;span style=&quot;background-color: initial;&quot;&gt;sensor_msgs/BatteryState&lt;/span&gt;&lt;span style=&quot;background-color: initial;&quot;&gt;&amp;nbsp;battery_state&lt;/span&gt;&lt;/blockquote&gt;&lt;blockquote style=&quot;margin: 0px 0px 0px 40px; border: none; padding: 0px;&quot;&gt;&lt;/blockquote&gt;&lt;blockquote style=&quot;margin: 0 0 0 40px; border: none; padding: 0px;&quot;&gt;&lt;span style=&quot;background-color: initial;&quot;&gt;bool is_healthy&lt;/span&gt;&lt;br&gt;&lt;/blockquote&gt;&lt;blockquote style=&quot;margin: 0 0 0 40px; border: none; padding: 0px;&quot;&gt;&lt;div&gt;string error_str&lt;/div&gt;&lt;div&gt;string[] error_indexes&lt;/div&gt;&lt;div&gt;int64[] error_values&lt;/div&gt;&lt;/blockquote&gt;" style="rounded=0;whiteSpace=wrap;html=1;align=left;" parent="1" vertex="1">
                    <mxGeometry x="-1240" y="362.5" width="470" height="227.5" as="geometry"/>
                </mxCell>
                <mxCell id="pcXcdwncbSQso5UvpWup-2" value="&lt;div&gt;GetLedState&lt;/div&gt;&lt;blockquote style=&quot;margin: 0 0 0 40px; border: none; padding: 0px;&quot;&gt;&lt;div&gt;&lt;span style=&quot;background-color: initial;&quot;&gt;float64 timeout&lt;/span&gt;&lt;br&gt;&lt;/div&gt;&lt;div&gt;&lt;span style=&quot;background-color: initial;&quot;&gt;---&lt;/span&gt;&lt;/div&gt;&lt;div&gt;&lt;div&gt;&lt;div&gt;bool success&lt;/div&gt;&lt;div&gt;bool light_or_dim&lt;br&gt;&lt;/div&gt;&lt;div&gt;&lt;/div&gt;&lt;/div&gt;&lt;div&gt;&lt;/div&gt;&lt;/div&gt;&lt;div&gt;&lt;div&gt;&lt;div&gt;&lt;/div&gt;&lt;/div&gt;&lt;/div&gt;&lt;div&gt;&lt;/div&gt;&lt;/blockquote&gt;" style="rounded=0;whiteSpace=wrap;html=1;align=left;" parent="1" vertex="1">
                    <mxGeometry x="2080" y="517.5" width="290" height="82.5" as="geometry"/>
                </mxCell>
                <mxCell id="MpC-0d0ymu11Qm0Mqnbx-1" value="&lt;div&gt;SetCameraOnOff&lt;/div&gt;&lt;blockquote style=&quot;margin: 0 0 0 40px; border: none; padding: 0px;&quot;&gt;&lt;span style=&quot;background-color: initial;&quot;&gt;ms_module_msgs/&lt;/span&gt;CameraID camera_id&lt;/blockquote&gt;&lt;blockquote style=&quot;margin: 0 0 0 40px; border: none; padding: 0px;&quot;&gt;&lt;div&gt;&lt;span style=&quot;background-color: initial;&quot;&gt;bool on_or_off&lt;br&gt;---&lt;/span&gt;&lt;/div&gt;&lt;div&gt;bool success&lt;/div&gt;&lt;/blockquote&gt;" style="rounded=0;whiteSpace=wrap;html=1;align=left;" parent="1" vertex="1">
                    <mxGeometry x="1770" y="257.5" width="290" height="80" as="geometry"/>
                </mxCell>
                <mxCell id="4USknxosGu01iNxAUdN8-1" value="&lt;div&gt;MultiFuncEndEffectorID&lt;/div&gt;&lt;blockquote style=&quot;margin: 0px 0px 0px 40px; border: none; padding: 0px;&quot;&gt;ms_module_msgs/ModuleID&amp;nbsp;module_id&lt;div&gt;&lt;div&gt;string type&lt;/div&gt;&lt;div&gt;string subtype&lt;/div&gt;&lt;div&gt;&lt;span style=&quot;background-color: initial;&quot;&gt;int64 num&lt;/span&gt;&lt;/div&gt;&lt;/div&gt;&lt;/blockquote&gt;" style="rounded=0;whiteSpace=wrap;html=1;align=left;" parent="1" vertex="1">
                    <mxGeometry x="240" y="160" width="370" height="90" as="geometry"/>
                </mxCell>
                <mxCell id="4USknxosGu01iNxAUdN8-2" value="&lt;div&gt;&lt;span style=&quot;text-align: left;&quot;&gt;PassiveのEndEffector（グリーパー、多機能EE、車輪）は独立なモジュールとして扱うが、&lt;/span&gt;&lt;span style=&quot;text-align: left; background-color: initial;&quot;&gt;現状ではIDは付けられたモジュール結合機構&lt;/span&gt;&lt;span style=&quot;background-color: initial; text-align: left;&quot;&gt;に依存する&lt;/span&gt;&lt;/div&gt;" style="text;html=1;align=center;verticalAlign=middle;whiteSpace=wrap;rounded=0;" parent="1" vertex="1">
                    <mxGeometry x="220" y="110" width="400" height="50" as="geometry"/>
                </mxCell>
                <mxCell id="PBGt2AfDuhVMUpdJL0yQ-1" value="&lt;div&gt;WheelID&lt;/div&gt;&lt;blockquote style=&quot;margin: 0px 0px 0px 40px; border: none; padding: 0px;&quot;&gt;&lt;span style=&quot;background-color: initial;&quot;&gt;ms_module_msgs/&lt;/span&gt;&lt;span style=&quot;background-color: initial;&quot;&gt;ConnectorID connector&lt;/span&gt;&lt;span style=&quot;background-color: initial;&quot;&gt;_id&lt;/span&gt;&lt;br&gt;&lt;/blockquote&gt;&lt;blockquote style=&quot;margin: 0px 0px 0px 40px; border: none; padding: 0px;&quot;&gt;&lt;span style=&quot;background-color: initial;&quot;&gt;#&lt;/span&gt;&lt;span style=&quot;background-color: initial;&quot;&gt;現状では&lt;/span&gt;&lt;br&gt;&lt;/blockquote&gt;&lt;blockquote style=&quot;margin: 0px 0px 0px 40px; border: none; padding: 0px;&quot;&gt;&lt;span style=&quot;background-color: initial;&quot;&gt;#&lt;/span&gt;&lt;span style=&quot;background-color: initial;&quot;&gt;module_id.type = &quot;wheel&lt;/span&gt;&lt;span style=&quot;background-color: initial;&quot;&gt;&quot;&lt;/span&gt;&lt;/blockquote&gt;&lt;blockquote style=&quot;margin: 0px 0px 0px 40px; border: none; padding: 0px;&quot;&gt;&lt;span style=&quot;background-color: initial;&quot;&gt;#&lt;/span&gt;&lt;span style=&quot;background-color: initial;&quot;&gt;module_id.subtype = &quot;&lt;/span&gt;&lt;span style=&quot;background-color: initial;&quot;&gt;&quot;&lt;/span&gt;&lt;span style=&quot;background-color: initial;&quot;&gt;&lt;br&gt;&lt;/span&gt;&lt;/blockquote&gt;&lt;blockquote style=&quot;margin: 0px 0px 0px 40px; border: none; padding: 0px;&quot;&gt;#module_id.num = ‐1&amp;nbsp;&lt;/blockquote&gt;&lt;blockquote style=&quot;margin: 0px 0px 0px 40px; border: none; padding: 0px;&quot;&gt;&lt;span style=&quot;background-color: initial;&quot;&gt;#0&lt;/span&gt;&lt;span style=&quot;background-color: initial;&quot;&gt;はID未知の意味&lt;/span&gt;&lt;/blockquote&gt;&lt;blockquote style=&quot;margin: 0px 0px 0px 40px; border: none; padding: 0px;&quot;&gt;#&lt;span style=&quot;background-color: initial;&quot;&gt;‐1はID存在しない&lt;/span&gt;&lt;/blockquote&gt;&lt;blockquote style=&quot;margin: 0px 0px 0px 40px; border: none; padding: 0px;&quot;&gt;&lt;span style=&quot;background-color: initial;&quot;&gt;#&lt;/span&gt;&lt;span style=&quot;background-color: initial;&quot;&gt;linking_connector&lt;/span&gt;&lt;span style=&quot;background-color: initial;&quot;&gt;_id.type = &quot;UNKNOWN&quot; 結合相手が不明&lt;/span&gt;&lt;span style=&quot;background-color: initial;&quot;&gt;&lt;br&gt;&lt;/span&gt;&lt;/blockquote&gt;" style="rounded=0;whiteSpace=wrap;html=1;align=left;" parent="1" vertex="1">
                    <mxGeometry x="1060" y="160" width="360" height="150" as="geometry"/>
                </mxCell>
                <mxCell id="PBGt2AfDuhVMUpdJL0yQ-3" value="&lt;div&gt;ReversibleGripperID&lt;/div&gt;&lt;blockquote style=&quot;margin: 0px 0px 0px 40px; border: none; padding: 0px;&quot;&gt;ms_module_msgs/ModuleID&amp;nbsp;module_id&lt;div&gt;&lt;div&gt;string type&lt;/div&gt;&lt;div&gt;string subtype&lt;/div&gt;&lt;div&gt;&lt;span style=&quot;background-color: initial;&quot;&gt;int64 num&lt;/span&gt;&lt;/div&gt;&lt;/div&gt;&lt;/blockquote&gt;" style="rounded=0;whiteSpace=wrap;html=1;align=left;" parent="1" vertex="1">
                    <mxGeometry x="690" y="160" width="360" height="90" as="geometry"/>
                </mxCell>
                <mxCell id="PBGt2AfDuhVMUpdJL0yQ-4" value="&lt;div&gt;MultiFuncEndEffectorState&lt;/div&gt;&lt;blockquote style=&quot;margin: 0px 0px 0px 40px; border: none; padding: 0px;&quot;&gt;&lt;div&gt;std_msgs/Header header&lt;/div&gt;&lt;div&gt;ms_module_msgs/&lt;span style=&quot;background-color: initial;&quot;&gt;MultiFuncEndEffectorID&amp;nbsp;&lt;/span&gt;multi_func_ee_id&lt;/div&gt;&lt;div&gt;&lt;div&gt;&lt;span style=&quot;background-color: initial;&quot;&gt;bool&lt;/span&gt;&lt;span style=&quot;background-color: initial;&quot;&gt;&amp;nbsp;&lt;/span&gt;&lt;span style=&quot;background-color: initial;&quot;&gt;is_linked&lt;/span&gt;&lt;span style=&quot;background-color: initial;&quot;&gt;&lt;br&gt;&lt;/span&gt;&lt;/div&gt;&lt;div&gt;&lt;span style=&quot;background-color: initial;&quot;&gt;string&amp;nbsp;&lt;/span&gt;function #&quot;gripper&quot;, &quot;wheel&quot;, &quot;drill&quot;, &quot;scoop&quot;&lt;/div&gt;&lt;div&gt;&lt;div&gt;float64 &lt;span style=&quot;background-color: initial;&quot;&gt;position&lt;/span&gt;&lt;/div&gt;&lt;div&gt;float64 &lt;span style=&quot;background-color: initial;&quot;&gt;velocity&lt;/span&gt;&lt;/div&gt;&lt;div&gt;float64 &lt;span style=&quot;background-color: initial;&quot;&gt;effort&lt;/span&gt;&lt;span style=&quot;background-color: initial;&quot;&gt;&lt;br&gt;&lt;/span&gt;&lt;/div&gt;&lt;div&gt;float64 initial_open_angle&lt;span style=&quot;background-color: initial;&quot;&gt;&lt;br&gt;&lt;/span&gt;&lt;/div&gt;&lt;/div&gt;&lt;div&gt;&lt;span style=&quot;background-color: initial;&quot;&gt;bool is_healthy&lt;/span&gt;&lt;br&gt;&lt;/div&gt;&lt;/div&gt;&lt;div&gt;string error_str&lt;/div&gt;&lt;div&gt;string[] error_indexes&lt;/div&gt;&lt;div&gt;int64[] error_values&lt;/div&gt;&lt;/blockquote&gt;" style="rounded=0;whiteSpace=wrap;html=1;align=left;" parent="1" vertex="1">
                    <mxGeometry x="240" y="265" width="410" height="210" as="geometry"/>
                </mxCell>
                <mxCell id="PBGt2AfDuhVMUpdJL0yQ-5" value="&lt;div&gt;MultiFuncEndEffectorCmd&lt;/div&gt;&lt;blockquote style=&quot;margin: 0px 0px 0px 40px; border: none; padding: 0px;&quot;&gt;&lt;div&gt;std_msgs/Header header&lt;/div&gt;&lt;div&gt;&lt;div&gt;&lt;div&gt;ms_module_msgs/ModuleID publisher_id&lt;/div&gt;&lt;div&gt;&lt;/div&gt;&lt;/div&gt;&lt;div&gt;ms_module_msgs/MultiFuncEndEffectorID&amp;nbsp;&lt;span style=&quot;background-color: initial;&quot;&gt;multi_func_ee_id&lt;/span&gt;&lt;/div&gt;&lt;div&gt;&lt;/div&gt;&lt;div&gt;&lt;div&gt;ms_module_msgs/ConnectorID linked_connector_id&lt;/div&gt;&lt;div&gt;&lt;/div&gt;&lt;div&gt;&lt;span style=&quot;background-color: initial;&quot;&gt;string&amp;nbsp;&lt;/span&gt;function #&quot;gripper&quot;, &quot;wheel&quot;, &quot;drill&quot;, &quot;scoop&quot;&lt;/div&gt;&lt;/div&gt;&lt;/div&gt;&lt;div&gt;&lt;div&gt;&lt;div&gt;float64 &lt;span style=&quot;background-color: initial;&quot;&gt;position&lt;/span&gt;&lt;/div&gt;&lt;div&gt;float64 &lt;span style=&quot;background-color: initial;&quot;&gt;velocity&lt;/span&gt;&lt;/div&gt;&lt;div&gt;float64 &lt;span style=&quot;background-color: initial;&quot;&gt;effort&lt;/span&gt;&lt;span style=&quot;background-color: initial;&quot;&gt;&lt;br&gt;&lt;/span&gt;&lt;/div&gt;&lt;div&gt;float64 initial_open_angle&lt;span style=&quot;background-color: initial;&quot;&gt;&lt;br&gt;&lt;/span&gt;&lt;/div&gt;&lt;/div&gt;&lt;/div&gt;&lt;/blockquote&gt;" style="rounded=0;whiteSpace=wrap;html=1;align=left;" parent="1" vertex="1">
                    <mxGeometry x="240" y="480" width="410" height="150" as="geometry"/>
                </mxCell>
                <mxCell id="PBGt2AfDuhVMUpdJL0yQ-7" value="&lt;div&gt;MultiFuncEndEffector&lt;span style=&quot;background-color: initial;&quot;&gt;ErrorState&lt;/span&gt;&lt;br&gt;&lt;/div&gt;&lt;blockquote style=&quot;margin: 0 0 0 40px; border: none; padding: 0px;&quot;&gt;&lt;div&gt;&lt;div&gt;std_msgs/Header header&lt;/div&gt;&lt;/div&gt;&lt;/blockquote&gt;&lt;blockquote style=&quot;margin: 0 0 0 40px; border: none; padding: 0px;&quot;&gt;&lt;div&gt;ms_module_msgs/MultiFuncEndEffectorID&amp;nbsp;&lt;span style=&quot;background-color: initial;&quot;&gt;multi_func_ee_id&lt;/span&gt;&lt;/div&gt;&lt;div&gt;&lt;/div&gt;&lt;div&gt;&lt;/div&gt;&lt;div&gt;&lt;div&gt;&lt;span style=&quot;background-color: initial;&quot;&gt;bool&lt;/span&gt;&lt;span style=&quot;background-color: initial;&quot;&gt;&amp;nbsp;&lt;/span&gt;&lt;span style=&quot;background-color: initial;&quot;&gt;is_linked&lt;/span&gt;&lt;/div&gt;&lt;div&gt;&lt;span style=&quot;background-color: initial;&quot;&gt;bool is_healthy&lt;/span&gt;&lt;br&gt;&lt;/div&gt;&lt;/div&gt;&lt;div&gt;&lt;div&gt;string error_str&lt;/div&gt;&lt;/div&gt;&lt;div&gt;&lt;span style=&quot;background-color: initial;&quot;&gt;string[] error_indexes&lt;/span&gt;&lt;br&gt;&lt;/div&gt;&lt;div&gt;int64[] error_values&lt;/div&gt;&lt;/blockquote&gt;" style="rounded=0;whiteSpace=wrap;html=1;align=left;" parent="1" vertex="1">
                    <mxGeometry x="240" y="640" width="410" height="130" as="geometry"/>
                </mxCell>
                <mxCell id="PBGt2AfDuhVMUpdJL0yQ-8" value="&lt;div&gt;&lt;span style=&quot;background-color: rgb(255, 255, 255); font-size: 11px; text-align: center; text-wrap: nowrap;&quot;&gt;GetAll&lt;/span&gt;MultiFuncEndEffector&lt;span style=&quot;background-color: rgb(255, 255, 255); font-size: 11px; text-align: center; text-wrap: nowrap;&quot;&gt;State&lt;/span&gt;&lt;/div&gt;&lt;blockquote style=&quot;margin: 0 0 0 40px; border: none; padding: 0px;&quot;&gt;&lt;div&gt;&lt;div&gt;&lt;span style=&quot;background-color: initial;&quot;&gt;float64 timeout&lt;/span&gt;&lt;br&gt;&lt;/div&gt;&lt;/div&gt;&lt;div&gt;---&lt;/div&gt;&lt;div&gt;bool success&lt;/div&gt;&lt;div&gt;&lt;div&gt;&lt;span style=&quot;background-color: initial;&quot;&gt;ms_module_msgs/&lt;/span&gt;&lt;span style=&quot;background-color: initial;&quot;&gt;MultiFuncEndEffectorState&lt;/span&gt;[] multi_func_ee_state_list&lt;br&gt;&lt;/div&gt;&lt;blockquote style=&quot;margin: 0px 0px 0px 40px; border: none; padding: 0px;&quot;&gt;&lt;div&gt;&lt;/div&gt;&lt;/blockquote&gt;&lt;/div&gt;&lt;div&gt;&lt;blockquote style=&quot;margin: 0px 0px 0px 40px; border: none; padding: 0px;&quot;&gt;&lt;/blockquote&gt;&lt;/div&gt;&lt;blockquote style=&quot;margin: 0px 0px 0px 40px; border: none; padding: 0px;&quot;&gt;&lt;/blockquote&gt;&lt;/blockquote&gt;" style="rounded=0;whiteSpace=wrap;html=1;align=left;" parent="1" vertex="1">
                    <mxGeometry x="240" y="780" width="430" height="90" as="geometry"/>
                </mxCell>
                <mxCell id="PBGt2AfDuhVMUpdJL0yQ-9" value="&lt;div&gt;&lt;span style=&quot;background-color: rgb(255, 255, 255); text-align: center; text-wrap: nowrap;&quot;&gt;&lt;font style=&quot;font-size: 12px;&quot;&gt;Set&lt;/font&gt;&lt;/span&gt;MultiFuncEndEffector&lt;span style=&quot;background-color: rgb(255, 255, 255); text-align: center; text-wrap: nowrap;&quot;&gt;&lt;font style=&quot;font-size: 12px;&quot;&gt;Cmd&lt;/font&gt;&lt;/span&gt;&lt;/div&gt;&lt;blockquote style=&quot;margin: 0 0 0 40px; border: none; padding: 0px;&quot;&gt;ms_module_msgs/&lt;span style=&quot;background-color: initial;&quot;&gt;MultiFuncEndEffectorCmd&amp;nbsp;&lt;/span&gt;&lt;span style=&quot;background-color: initial;&quot;&gt;multi_func_ee_cmd&lt;/span&gt;&lt;span style=&quot;background-color: initial;&quot;&gt;&lt;br&gt;&lt;/span&gt;&lt;/blockquote&gt;&lt;blockquote style=&quot;margin: 0 0 0 40px; border: none; padding: 0px;&quot;&gt;&lt;div&gt;&lt;div&gt;&lt;span style=&quot;background-color: initial;&quot;&gt;float64 timeout&lt;/span&gt;&lt;br&gt;&lt;/div&gt;&lt;/div&gt;&lt;div&gt;---&lt;/div&gt;&lt;div&gt;bool success&lt;/div&gt;&lt;div&gt;&lt;div&gt;&lt;span style=&quot;background-color: initial;&quot;&gt;ms_module_msgs/&lt;/span&gt;MultiFuncEndEffectorState&amp;nbsp;&lt;span style=&quot;background-color: initial;&quot;&gt;multi_func_ee_state&lt;/span&gt;&lt;/div&gt;&lt;blockquote style=&quot;margin: 0px 0px 0px 40px; border: none; padding: 0px;&quot;&gt;&lt;/blockquote&gt;&lt;/div&gt;&lt;div&gt;&lt;blockquote style=&quot;margin: 0px 0px 0px 40px; border: none; padding: 0px;&quot;&gt;&lt;div&gt;&lt;/div&gt;&lt;/blockquote&gt;&lt;/div&gt;&lt;div&gt;&lt;blockquote style=&quot;margin: 0px 0px 0px 40px; border: none; padding: 0px;&quot;&gt;&lt;/blockquote&gt;&lt;/div&gt;&lt;blockquote style=&quot;margin: 0px 0px 0px 40px; border: none; padding: 0px;&quot;&gt;&lt;/blockquote&gt;&lt;/blockquote&gt;" style="rounded=0;whiteSpace=wrap;html=1;align=left;" parent="1" vertex="1">
                    <mxGeometry x="240" y="880" width="410" height="100" as="geometry"/>
                </mxCell>
                <mxCell id="PBGt2AfDuhVMUpdJL0yQ-10" value="&lt;div&gt;&lt;span style=&quot;background-color: rgb(255, 255, 255); text-align: center; text-wrap: nowrap;&quot;&gt;&lt;font style=&quot;font-size: 12px;&quot;&gt;Set&lt;/font&gt;&lt;/span&gt;MultiFuncEndEffector&lt;span style=&quot;background-color: rgb(255, 255, 255); text-align: center; text-wrap: nowrap;&quot;&gt;&lt;font style=&quot;font-size: 12px;&quot;&gt;CmdList&lt;/font&gt;&lt;/span&gt;&lt;/div&gt;&lt;blockquote style=&quot;margin: 0 0 0 40px; border: none; padding: 0px;&quot;&gt;ms_module_msgs/&lt;span style=&quot;background-color: initial;&quot;&gt;MultiFuncEndEffectorCmd&lt;/span&gt;&lt;span style=&quot;background-color: initial;&quot;&gt;[]&lt;/span&gt;&amp;nbsp;multi_func_ee_cmd_list&lt;span style=&quot;background-color: initial;&quot;&gt;&lt;br&gt;&lt;/span&gt;&lt;/blockquote&gt;&lt;blockquote style=&quot;margin: 0 0 0 40px; border: none; padding: 0px;&quot;&gt;&lt;div&gt;&lt;div&gt;&lt;span style=&quot;background-color: initial;&quot;&gt;float64 timeout&lt;/span&gt;&lt;br&gt;&lt;/div&gt;&lt;/div&gt;&lt;div&gt;---&lt;/div&gt;&lt;div&gt;bool success&lt;/div&gt;&lt;div&gt;&lt;div&gt;&lt;span style=&quot;background-color: initial;&quot;&gt;ms_module_msgs/&lt;/span&gt;MultiFuncEndEffectorState[]&amp;nbsp;&lt;span style=&quot;background-color: initial;&quot;&gt;multi_func_ee_state_list&lt;/span&gt;&lt;/div&gt;&lt;blockquote style=&quot;margin: 0px 0px 0px 40px; border: none; padding: 0px;&quot;&gt;&lt;/blockquote&gt;&lt;/div&gt;&lt;div&gt;&lt;blockquote style=&quot;margin: 0px 0px 0px 40px; border: none; padding: 0px;&quot;&gt;&lt;div&gt;&lt;/div&gt;&lt;/blockquote&gt;&lt;/div&gt;&lt;div&gt;&lt;blockquote style=&quot;margin: 0px 0px 0px 40px; border: none; padding: 0px;&quot;&gt;&lt;/blockquote&gt;&lt;/div&gt;&lt;blockquote style=&quot;margin: 0px 0px 0px 40px; border: none; padding: 0px;&quot;&gt;&lt;/blockquote&gt;&lt;/blockquote&gt;" style="rounded=0;whiteSpace=wrap;html=1;align=left;" parent="1" vertex="1">
                    <mxGeometry x="240" y="990" width="430" height="100" as="geometry"/>
                </mxCell>
                <mxCell id="PBGt2AfDuhVMUpdJL0yQ-11" value="&lt;div&gt;&lt;span style=&quot;background-color: initial;&quot;&gt;Reversible&lt;/span&gt;&lt;span style=&quot;background-color: initial;&quot;&gt;Gripper&lt;/span&gt;State&lt;/div&gt;&lt;blockquote style=&quot;margin: 0px 0px 0px 40px; border: none; padding: 0px;&quot;&gt;&lt;div&gt;std_msgs/Header header&lt;/div&gt;&lt;div&gt;ms_module_msgs/ReversibleGripperID rev_gripper_id&lt;/div&gt;&lt;div&gt;&lt;div&gt;&lt;span style=&quot;background-color: initial;&quot;&gt;int8 linked_side #0, not linking, 1, A side, -1, B side&lt;/span&gt;&lt;span style=&quot;background-color: initial;&quot;&gt;&lt;br&gt;&lt;/span&gt;&lt;/div&gt;&lt;div&gt;int8&amp;nbsp;&lt;span style=&quot;background-color: initial;&quot;&gt;finger_direction&lt;/span&gt;&lt;span style=&quot;background-color: initial;&quot;&gt;&amp;nbsp;&lt;/span&gt;&lt;span style=&quot;background-color: initial;&quot;&gt;#0, neutral, 1, A side, -1, B side&lt;/span&gt;&lt;span style=&quot;background-color: initial;&quot;&gt;&lt;br&gt;&lt;/span&gt;&lt;/div&gt;&lt;div&gt;&lt;span style=&quot;background-color: initial;&quot;&gt;float64&amp;nbsp;&lt;/span&gt;gripping_rate&lt;br&gt;&lt;/div&gt;&lt;div&gt;&lt;div&gt;&lt;span style=&quot;background-color: initial;&quot;&gt;float64 effort&lt;/span&gt;&lt;br&gt;&lt;/div&gt;&lt;/div&gt;&lt;div&gt;&lt;span style=&quot;background-color: initial;&quot;&gt;bool is_healthy&lt;/span&gt;&lt;br&gt;&lt;/div&gt;&lt;/div&gt;&lt;div&gt;string error_str&lt;/div&gt;&lt;div&gt;string[] error_indexes&lt;/div&gt;&lt;div&gt;int64[] error_values&lt;/div&gt;&lt;/blockquote&gt;" style="rounded=0;whiteSpace=wrap;html=1;align=left;" parent="1" vertex="1">
                    <mxGeometry x="690" y="310" width="360" height="180" as="geometry"/>
                </mxCell>
                <mxCell id="PBGt2AfDuhVMUpdJL0yQ-12" value="&lt;div&gt;&lt;span style=&quot;background-color: initial;&quot;&gt;Reversible&lt;/span&gt;&lt;span style=&quot;background-color: initial;&quot;&gt;Gripper&lt;/span&gt;Cmd&lt;/div&gt;&lt;blockquote style=&quot;margin: 0px 0px 0px 40px; border: none; padding: 0px;&quot;&gt;&lt;div&gt;std_msgs/Header header&lt;/div&gt;&lt;div&gt;&lt;div&gt;&lt;div&gt;ms_module_msgs/ModuleID publisher_id&lt;/div&gt;&lt;div&gt;&lt;/div&gt;&lt;/div&gt;&lt;div&gt;ms_module_msgs/ReversibleGripperID rev_gripper_id&lt;/div&gt;&lt;div&gt;ms_module_msgs/ConnectorID linked_connector_id&lt;/div&gt;&lt;div&gt;&lt;div&gt;&lt;span style=&quot;background-color: initial;&quot;&gt;int8 finger_direction&lt;/span&gt;&lt;span style=&quot;background-color: initial;&quot;&gt;&amp;nbsp;&lt;/span&gt;&lt;span style=&quot;background-color: initial;&quot;&gt;#0, neutral, 1, A side, -1, B side,&lt;/span&gt;&lt;/div&gt;&lt;/div&gt;&lt;div&gt;&lt;/div&gt;&lt;div&gt;&lt;div&gt;&lt;span style=&quot;background-color: initial;&quot;&gt;float64 gripping_rate&lt;/span&gt;&lt;br&gt;&lt;/div&gt;&lt;/div&gt;&lt;/div&gt;&lt;div&gt;&lt;span style=&quot;background-color: initial;&quot;&gt;float64 effort&lt;/span&gt;&lt;br&gt;&lt;/div&gt;&lt;/blockquote&gt;" style="rounded=0;whiteSpace=wrap;html=1;align=left;" parent="1" vertex="1">
                    <mxGeometry x="690" y="495" width="400" height="120" as="geometry"/>
                </mxCell>
                <mxCell id="PBGt2AfDuhVMUpdJL0yQ-13" value="&lt;div&gt;&lt;span style=&quot;background-color: initial;&quot;&gt;Reversible&lt;/span&gt;&lt;span style=&quot;background-color: initial;&quot;&gt;Gripper&lt;/span&gt;&lt;span style=&quot;background-color: initial;&quot;&gt;Error&lt;/span&gt;&lt;span style=&quot;background-color: initial;&quot;&gt;State&lt;/span&gt;&lt;/div&gt;&lt;blockquote style=&quot;margin: 0 0 0 40px; border: none; padding: 0px;&quot;&gt;&lt;div&gt;&lt;div&gt;std_msgs/Header header&lt;/div&gt;&lt;/div&gt;&lt;/blockquote&gt;&lt;blockquote style=&quot;margin: 0 0 0 40px; border: none; padding: 0px;&quot;&gt;&lt;div&gt;ms_module_msgs/ReversibleGripperID rev_&lt;span style=&quot;background-color: initial;&quot;&gt;gripper_id&lt;/span&gt;&lt;/div&gt;&lt;div&gt;&lt;/div&gt;&lt;div&gt;&lt;/div&gt;int8 linked_side #0, neutral, 1, A side, -1, B side,&lt;div&gt;&lt;span style=&quot;background-color: initial;&quot;&gt;bool is_healthy&lt;/span&gt;&lt;br&gt;&lt;/div&gt;&lt;div&gt;&lt;div&gt;string error_str&lt;/div&gt;&lt;/div&gt;&lt;div&gt;&lt;span style=&quot;background-color: initial;&quot;&gt;string[] error_indexes&lt;/span&gt;&lt;br&gt;&lt;/div&gt;&lt;div&gt;int64[] error_values&lt;/div&gt;&lt;/blockquote&gt;" style="rounded=0;whiteSpace=wrap;html=1;align=left;" parent="1" vertex="1">
                    <mxGeometry x="690" y="630" width="400" height="130" as="geometry"/>
                </mxCell>
                <mxCell id="PBGt2AfDuhVMUpdJL0yQ-14" value="&lt;div style=&quot;text-align: left;&quot;&gt;&lt;font style=&quot;font-size: 12px;&quot;&gt;&lt;span style=&quot;text-wrap: nowrap; background-color: rgb(255, 255, 255); font-size: 11px; text-align: center;&quot;&gt;GetAll&lt;/span&gt;&lt;span style=&quot;background-color: initial;&quot;&gt;Reversible&lt;/span&gt;&lt;span style=&quot;text-wrap: nowrap; background-color: rgb(255, 255, 255); font-size: 11px; text-align: center;&quot;&gt;&lt;/span&gt;&lt;span style=&quot;text-align: center; background-color: rgb(251, 251, 251);&quot;&gt;Gripper&lt;/span&gt;&lt;span style=&quot;text-wrap: nowrap; background-color: rgb(255, 255, 255); font-size: 11px; text-align: center;&quot;&gt;State&lt;/span&gt;&lt;/font&gt;&lt;/div&gt;&lt;blockquote style=&quot;margin: 0 0 0 40px; border: none; padding: 0px;&quot;&gt;&lt;div&gt;&lt;span style=&quot;background-color: initial;&quot;&gt;float64 timeout&lt;/span&gt;&lt;br&gt;&lt;/div&gt;&lt;div&gt;---&lt;/div&gt;&lt;div&gt;bool success&lt;/div&gt;&lt;div&gt;&lt;span style=&quot;background-color: initial;&quot;&gt;ms_module_msgs/&lt;/span&gt;Reversible&lt;span style=&quot;background-color: initial;&quot;&gt;Gripper&lt;/span&gt;&lt;span style=&quot;background-color: initial;&quot;&gt;State&lt;/span&gt;[] rev_gripper_state_list&lt;/div&gt;&lt;/blockquote&gt;" style="rounded=0;whiteSpace=wrap;html=1;align=left;" parent="1" vertex="1">
                    <mxGeometry x="690" y="770" width="400" height="100" as="geometry"/>
                </mxCell>
                <mxCell id="PBGt2AfDuhVMUpdJL0yQ-15" value="&lt;div&gt;&lt;span style=&quot;background-color: rgb(255, 255, 255); text-align: center; text-wrap: nowrap;&quot;&gt;&lt;font style=&quot;font-size: 12px;&quot;&gt;Set&lt;/font&gt;&lt;/span&gt;&lt;span style=&quot;background-color: initial;&quot;&gt;Reversible&lt;/span&gt;&lt;span style=&quot;background-color: initial; text-align: center;&quot;&gt;Gripper&lt;/span&gt;&lt;span style=&quot;text-wrap: nowrap; background-color: rgb(255, 255, 255); text-align: center;&quot;&gt;Cmd&lt;/span&gt;&lt;/div&gt;&lt;blockquote style=&quot;margin: 0 0 0 40px; border: none; padding: 0px;&quot;&gt;ms_module_msgs/Reversible&lt;span style=&quot;background-color: initial;&quot;&gt;Gripper&lt;/span&gt;Cmd rev_&lt;span style=&quot;background-color: initial;&quot;&gt;gripper_cmd&lt;/span&gt;&lt;span style=&quot;background-color: initial;&quot;&gt;&lt;br&gt;&lt;/span&gt;&lt;/blockquote&gt;&lt;blockquote style=&quot;margin: 0 0 0 40px; border: none; padding: 0px;&quot;&gt;&lt;div&gt;&lt;div&gt;&lt;span style=&quot;background-color: initial;&quot;&gt;float64 timeout&lt;/span&gt;&lt;br&gt;&lt;/div&gt;&lt;/div&gt;&lt;div&gt;---&lt;/div&gt;&lt;div&gt;bool success&lt;/div&gt;&lt;div&gt;&lt;div&gt;&lt;span style=&quot;background-color: initial;&quot;&gt;ms_module_msgs/&lt;/span&gt;Reversible&lt;span style=&quot;background-color: initial;&quot;&gt;Gripper&lt;/span&gt;&lt;span style=&quot;background-color: initial;&quot;&gt;State rev_&lt;/span&gt;&lt;span style=&quot;background-color: initial;&quot;&gt;gripper_state&lt;/span&gt;&lt;/div&gt;&lt;blockquote style=&quot;margin: 0px 0px 0px 40px; border: none; padding: 0px;&quot;&gt;&lt;/blockquote&gt;&lt;/div&gt;&lt;div&gt;&lt;blockquote style=&quot;margin: 0px 0px 0px 40px; border: none; padding: 0px;&quot;&gt;&lt;div&gt;&lt;/div&gt;&lt;/blockquote&gt;&lt;/div&gt;&lt;div&gt;&lt;blockquote style=&quot;margin: 0px 0px 0px 40px; border: none; padding: 0px;&quot;&gt;&lt;/blockquote&gt;&lt;/div&gt;&lt;blockquote style=&quot;margin: 0px 0px 0px 40px; border: none; padding: 0px;&quot;&gt;&lt;/blockquote&gt;&lt;/blockquote&gt;" style="rounded=0;whiteSpace=wrap;html=1;align=left;" parent="1" vertex="1">
                    <mxGeometry x="690" y="875" width="380" height="100" as="geometry"/>
                </mxCell>
                <mxCell id="PBGt2AfDuhVMUpdJL0yQ-17" value="&lt;div&gt;&lt;span style=&quot;background-color: rgb(255, 255, 255); text-align: center; text-wrap: nowrap;&quot;&gt;&lt;font style=&quot;font-size: 12px;&quot;&gt;Set&lt;/font&gt;&lt;/span&gt;&lt;span style=&quot;background-color: initial;&quot;&gt;Reversible&lt;/span&gt;&lt;span style=&quot;background-color: rgb(255, 255, 255); text-align: center; text-wrap: nowrap;&quot;&gt;GripperCmdList&lt;/span&gt;&lt;/div&gt;&lt;blockquote style=&quot;margin: 0 0 0 40px; border: none; padding: 0px;&quot;&gt;ms_module_msgs/Reversible&lt;span style=&quot;background-color: initial;&quot;&gt;Gripper&lt;/span&gt;Cmd&lt;span style=&quot;background-color: initial;&quot;&gt;[]&lt;/span&gt;&amp;nbsp;rev_gripper_cmd_list&lt;span style=&quot;background-color: initial;&quot;&gt;&lt;br&gt;&lt;/span&gt;&lt;/blockquote&gt;&lt;blockquote style=&quot;margin: 0 0 0 40px; border: none; padding: 0px;&quot;&gt;&lt;div&gt;&lt;div&gt;&lt;span style=&quot;background-color: initial;&quot;&gt;float64 timeout&lt;/span&gt;&lt;br&gt;&lt;/div&gt;&lt;/div&gt;&lt;div&gt;---&lt;/div&gt;&lt;div&gt;bool success&lt;/div&gt;&lt;div&gt;&lt;div&gt;&lt;span style=&quot;background-color: initial;&quot;&gt;ms_module_msgs/&lt;/span&gt;Reversible&lt;span style=&quot;background-color: initial;&quot;&gt;Gripper&lt;/span&gt;&lt;span style=&quot;background-color: initial;&quot;&gt;State[] rev_&lt;/span&gt;&lt;span style=&quot;background-color: initial;&quot;&gt;gripper_state_list&lt;/span&gt;&lt;br&gt;&lt;/div&gt;&lt;blockquote style=&quot;margin: 0px 0px 0px 40px; border: none; padding: 0px;&quot;&gt;&lt;/blockquote&gt;&lt;/div&gt;&lt;div&gt;&lt;blockquote style=&quot;margin: 0px 0px 0px 40px; border: none; padding: 0px;&quot;&gt;&lt;div&gt;&lt;/div&gt;&lt;/blockquote&gt;&lt;/div&gt;&lt;div&gt;&lt;blockquote style=&quot;margin: 0px 0px 0px 40px; border: none; padding: 0px;&quot;&gt;&lt;/blockquote&gt;&lt;/div&gt;&lt;blockquote style=&quot;margin: 0px 0px 0px 40px; border: none; padding: 0px;&quot;&gt;&lt;/blockquote&gt;&lt;/blockquote&gt;" style="rounded=0;whiteSpace=wrap;html=1;align=left;" parent="1" vertex="1">
                    <mxGeometry x="690" y="990" width="400" height="100" as="geometry"/>
                </mxCell>
                <mxCell id="Brk51oJ1axsTPNWQHw6l-1" value="&lt;div style=&quot;text-align: left;&quot;&gt;SampleGripperは&lt;span style=&quot;background-color: initial;&quot;&gt;ReversibleGripperの特例にする&lt;/span&gt;&lt;/div&gt;" style="text;html=1;align=center;verticalAlign=middle;whiteSpace=wrap;rounded=0;" parent="1" vertex="1">
                    <mxGeometry x="630" y="120" width="400" height="50" as="geometry"/>
                </mxCell>
            </root>
        </mxGraphModel>
    </diagram>
</mxfile>